<svg width="189" height="34" viewBox="0 0 189 34" fill="none" xmlns="http://www.w3.org/2000/svg">
<path d="M38.2192 14.2465C38.2888 14.5252 38.3585 13.8523 38.2192 14.2465C37.3831 16.3367 32.9999 18.5331 30.4916 18.3241C33.5573 13.3773 33.9772 8.70918 33.9772 5.57388C33.9772 2.0902 33.0017 0 33.0017 0C29.1697 4.94682 21.2966 6.47963 14.817 6.96734C14.817 6.96734 14.817 6.96735 14.8866 6.89767C14.8866 6.89767 14.8866 6.89767 14.817 6.89767C16.4891 5.08616 17.6039 3.83204 18.44 1.3238C14.9563 4.18041 10.0095 4.25008 6.10778 6.61898C2.55444 8.77885 0.673254 11.6355 0.464233 16.0249C0.464233 16.0946 0.464233 16.2339 0.464233 16.3036V26.8939C0.464233 30.726 3.59954 34 7.36191 34H23.2108C31.076 34 34.1714 25.6994 38.2192 14.2465Z" fill="#FFC107"/>
<mask id="mask0" mask-type="alpha" maskUnits="userSpaceOnUse" x="0" y="0" width="39" height="34">
<path d="M38.2192 14.2465C38.2888 14.5252 38.3585 13.8523 38.2192 14.2465C37.3831 16.3367 32.9999 18.5331 30.4916 18.3241C33.5573 13.3773 33.9772 8.70918 33.9772 5.57388C33.9772 2.0902 33.0017 0 33.0017 0C29.1697 4.94682 21.2966 6.47963 14.817 6.96734C14.817 6.96734 14.817 6.96735 14.8866 6.89767C14.8866 6.89767 14.8866 6.89767 14.817 6.89767C16.4891 5.08616 17.6039 3.83204 18.44 1.3238C14.9563 4.18041 10.0095 4.25008 6.10778 6.61898C2.55444 8.77885 0.673254 11.6355 0.464233 16.0249C0.464233 16.0946 0.464233 16.2339 0.464233 16.3036V26.8939C0.464233 30.726 3.59954 34 7.36191 34H23.2108C31.076 34 34.1714 25.6994 38.2192 14.2465Z" fill="#FFC107"/>
</mask>
<g mask="url(#mask0)">
<path d="M31.8871 17.8365C31.1207 18.2545 30.5729 18.2875 30.5729 18.2875L30.6763 18.2065C31.0247 17.5794 30.9768 17.7038 31.3251 17.1464L26.6616 12.611L24.6411 15.3282L4.43579 18.1152L7.43175 21.1111L4.43579 23.9677L7.43175 26.9637L5.41122 29.1236L10.238 34.4581L16.8032 40.7619C16.8032 41.2889 33.5789 37.0672 34.0781 34.4581C38.0723 33.772 42.5658 29.1236 34.9528 20.9021L31.8871 17.8365Z" fill="#FFA000"/>
</g>
<path d="M14.6776 19.5783H4.29626V23.8981H14.6776V19.5783Z" fill="white"/>
<path d="M16.2802 30.099H22.4811C24.7803 30.099 26.6615 28.2178 26.6615 25.9186V25.3612H16.2802V30.099Z" fill="white"/>
<path d="M26.6615 19.5783H16.2802V23.8981H26.6615V19.5783Z" fill="white"/>
<path d="M19.2064 13.447H7.08323C5.62009 13.447 4.36597 14.6315 4.36597 16.1643V18.0455H26.6615V12.611C25.7557 12.82 23.3868 13.3774 19.2064 13.447Z" fill="white"/>
<path d="M4.29626 26.685C4.29626 28.5662 5.82908 30.1687 7.77994 30.1687H14.6776V25.5005H4.29626V26.685Z" fill="white"/>
<path d="M54.3527 27.0708C53.9372 27.0708 53.565 26.814 53.4177 26.4255L52.2829 23.4339H46.8488C46.4334 23.4339 46.0612 23.6908 45.9138 24.0792L45.0239 26.4255C44.8765 26.814 44.5043 27.0708 44.0889 27.0708H42.4799L47.8969 13.0784C48.046 12.6933 48.4165 12.4394 48.8295 12.4394H50.4435L56.0662 27.0708H54.3527ZM48.1025 18.3338L46.9947 21.2601H51.4677L50.3181 18.2502C50.137 17.7625 49.9558 17.2399 49.7747 16.6825C49.5935 16.1112 49.4124 15.5399 49.2312 14.9686C49.0361 15.5538 48.841 16.1391 48.646 16.7243C48.4648 17.3096 48.2837 17.8461 48.1025 18.3338Z" fill="white"/>
<path d="M71.9853 16.0973L67.5889 27.0708H66.7578C66.3611 27.0708 66.0018 26.8363 65.8423 26.4731L63.304 20.6957L60.9457 26.4501C60.7918 26.8256 60.4262 27.0708 60.0204 27.0708H59.2281L54.7899 16.0973L56.291 16.0828C56.6977 16.0789 57.0663 16.3218 57.2232 16.6971L60.1269 23.6429L62.7606 17.8321H64.0565L66.6692 23.5593L69.5538 16.7092C69.71 16.3384 70.0731 16.0973 70.4755 16.0973H71.9853Z" fill="white"/>
<path d="M82.4396 25.6286H82.4187C81.9728 26.0606 81.3597 26.4438 80.5793 26.7782C79.799 27.1126 78.9838 27.2799 78.1338 27.2799C76.9911 27.2799 75.9809 27.043 75.103 26.5692C74.239 26.0815 73.5632 25.4196 73.0755 24.5835C72.5878 23.7335 72.3439 22.772 72.3439 21.699C72.3439 20.4728 72.6017 19.4277 73.1173 18.5637C73.6329 17.6858 74.3157 17.017 75.1657 16.5571C76.0157 16.0833 76.9424 15.8465 77.9457 15.8465C78.8654 15.8465 79.7014 16.0764 80.4539 16.5362C81.2064 16.9821 81.8056 17.6022 82.2515 18.3965C82.6974 19.1908 82.9203 20.1174 82.9203 21.1765L82.8994 22.0962H74.4968C74.6222 23.0855 75.0263 23.8728 75.7091 24.4581C76.4059 25.0294 77.2838 25.3151 78.3428 25.3151C79.1092 25.3151 79.7293 25.1757 80.2031 24.897C80.2957 24.8398 80.3851 24.7832 80.4713 24.727C80.9723 24.4008 81.6686 24.4947 82.0047 24.9891L82.4396 25.6286ZM77.9457 17.8321C77.1235 17.8321 76.4059 18.0272 75.7928 18.4174C75.1796 18.7936 74.7755 19.4486 74.5804 20.3822H80.7256V20.2359C80.6838 19.7621 80.5236 19.3441 80.2449 18.9818C79.9801 18.6195 79.6457 18.3408 79.2416 18.1457C78.8375 17.9367 78.4055 17.8321 77.9457 17.8321Z" fill="white"/>
<path d="M91.6717 18.2046C91.2878 18.6276 90.6313 18.6337 90.1532 18.3211C89.9857 18.2117 89.8108 18.1114 89.6286 18.0203C89.1409 17.7694 88.688 17.644 88.27 17.644C87.9773 17.644 87.6847 17.6789 87.3921 17.7485C87.1134 17.8182 86.8765 17.9506 86.6814 18.1457C86.4863 18.3268 86.3888 18.5986 86.3888 18.9609C86.4027 19.4625 86.6257 19.8178 87.0576 20.0269C87.5036 20.2359 88.054 20.424 88.7089 20.5912C89.2802 20.7445 89.8376 20.9396 90.3811 21.1765C90.9245 21.3994 91.3704 21.7339 91.7188 22.1798C92.0811 22.6117 92.2623 23.2249 92.2623 24.0191C92.2623 24.7019 92.0672 25.2872 91.677 25.7749C91.3008 26.2626 90.8061 26.6389 90.193 26.9036C89.5938 27.1545 88.9597 27.2799 88.2909 27.2799C87.4966 27.2799 86.7093 27.1405 85.9289 26.8618C85.1625 26.5692 84.5076 26.0745 83.9641 25.3778L84.674 24.7693C85.091 24.4119 85.7113 24.4707 86.1514 24.7991C86.3271 24.9302 86.5107 25.0464 86.7023 25.1479C87.19 25.3847 87.7823 25.5032 88.479 25.5032C88.7437 25.5032 89.0085 25.4614 89.2733 25.3778C89.538 25.2802 89.761 25.1339 89.9421 24.9388C90.1372 24.7298 90.2348 24.4511 90.2348 24.1028C90.2348 23.7683 90.1302 23.5105 89.9212 23.3294C89.7261 23.1343 89.4614 22.981 89.1269 22.8695C88.7925 22.7441 88.4232 22.6326 88.0191 22.5351C87.4199 22.3679 86.8277 22.1658 86.2425 21.9289C85.6711 21.6781 85.1904 21.3297 84.8002 20.8838C84.424 20.424 84.2359 19.8039 84.2359 19.0236C84.2359 18.3686 84.417 17.8112 84.7793 17.3514C85.1556 16.8776 85.6433 16.5153 86.2425 16.2645C86.8417 15.9997 87.4827 15.8674 88.1655 15.8674C88.8204 15.8674 89.5311 16.0067 90.2975 16.2854C91.0639 16.5641 91.6979 17.01 92.1995 17.6231L91.6717 18.2046Z" fill="white"/>
<path d="M104.522 21.5736C104.522 22.6884 104.271 23.6777 103.769 24.5417C103.281 25.3917 102.613 26.0606 101.763 26.5483C100.926 27.036 99.9859 27.2799 98.9408 27.2799C97.8957 27.2799 96.9481 27.036 96.0981 26.5483C95.2481 26.0606 94.5723 25.3917 94.0706 24.5417C93.5829 23.6777 93.339 22.6884 93.339 21.5736C93.339 20.4588 93.5829 19.4764 94.0706 18.6264C94.5723 17.7625 95.2481 17.0866 96.0981 16.5989C96.9481 16.1112 97.8957 15.8674 98.9408 15.8674C99.9859 15.8674 100.926 16.1112 101.763 16.5989C102.613 17.0866 103.281 17.7625 103.769 18.6264C104.271 19.4764 104.522 20.4588 104.522 21.5736ZM102.327 21.5736C102.341 20.8351 102.195 20.1871 101.888 19.6297C101.595 19.0584 101.191 18.6195 100.676 18.3129C100.16 17.9924 99.5818 17.8321 98.9408 17.8321C98.2998 17.8321 97.7145 17.9924 97.185 18.3129C96.6694 18.6195 96.2584 19.0584 95.9518 19.6297C95.6592 20.1871 95.5198 20.8351 95.5337 21.5736C95.5198 22.2982 95.6592 22.9462 95.9518 23.5175C96.2584 24.0749 96.6694 24.5138 97.185 24.8343C97.7145 25.1548 98.2998 25.3151 98.9408 25.3151C99.5818 25.3151 100.16 25.1548 100.676 24.8343C101.191 24.5138 101.595 24.0749 101.888 23.5175C102.195 22.9462 102.341 22.2982 102.327 21.5736Z" fill="white"/>
<path d="M111.821 15.9092C112.727 15.9092 113.452 16.1182 113.995 16.5362C114.539 16.9403 114.929 17.4977 115.166 18.2084C115.361 17.86 115.646 17.5116 116.023 17.1633C116.399 16.801 116.838 16.5014 117.339 16.2645C117.841 16.0276 118.378 15.9092 118.949 15.9092C119.896 15.9092 120.635 16.1182 121.165 16.5362C121.694 16.9403 122.063 17.4907 122.272 18.1875C122.495 18.8703 122.607 19.6367 122.607 20.4867V27.0708H121.433C120.881 27.0708 120.433 26.6231 120.433 26.0708V20.6121C120.433 19.8039 120.28 19.149 119.973 18.6473C119.667 18.1457 119.088 17.8948 118.238 17.8948C117.43 17.8948 116.761 18.1526 116.232 18.6682C115.716 19.1699 115.458 19.783 115.458 20.5076V27.0708H114.284C113.732 27.0708 113.284 26.6231 113.284 26.0708V20.5703C113.284 19.79 113.117 19.149 112.783 18.6473C112.448 18.1457 111.898 17.8948 111.132 17.8948C110.602 17.8948 110.128 18.0133 109.71 18.2502C109.292 18.4871 108.965 18.8006 108.728 19.1908C108.491 19.567 108.372 19.992 108.372 20.4658V26.0708C108.372 26.6231 107.925 27.0708 107.372 27.0708H106.199V17.0973C106.199 16.545 106.646 16.0973 107.199 16.0973H108.372V17.853C108.707 17.3514 109.174 16.9055 109.773 16.5153C110.386 16.1112 111.069 15.9092 111.821 15.9092Z" fill="white"/>
<path d="M134.289 25.6286H134.268C133.822 26.0606 133.209 26.4438 132.429 26.7782C131.648 27.1126 130.833 27.2799 129.983 27.2799C128.84 27.2799 127.83 27.043 126.952 26.5692C126.088 26.0815 125.413 25.4196 124.925 24.5835C124.437 23.7335 124.193 22.772 124.193 21.699C124.193 20.4728 124.451 19.4277 124.967 18.5637C125.482 17.6858 126.165 17.017 127.015 16.5571C127.865 16.0833 128.792 15.8465 129.795 15.8465C130.715 15.8465 131.551 16.0764 132.303 16.5362C133.056 16.9821 133.655 17.6022 134.101 18.3965C134.547 19.1908 134.77 20.1174 134.77 21.1765L134.749 22.0962H126.346C126.472 23.0855 126.876 23.8728 127.558 24.4581C128.255 25.0294 129.133 25.3151 130.192 25.3151C130.959 25.3151 131.579 25.1757 132.052 24.897C132.145 24.8398 132.234 24.7832 132.321 24.727C132.822 24.4008 133.518 24.4947 133.854 24.9891L134.289 25.6286ZM129.795 17.8321C128.973 17.8321 128.255 18.0272 127.642 18.4174C127.029 18.7936 126.625 19.4486 126.43 20.3822H132.575V20.2359C132.533 19.7621 132.373 19.3441 132.094 18.9818C131.829 18.6195 131.495 18.3408 131.091 18.1457C130.687 17.9367 130.255 17.8321 129.795 17.8321Z" fill="white"/>
<path d="M143.079 27.0708V14.6132H138.128L138.733 13.0734C138.884 12.6909 139.253 12.4394 139.664 12.4394H150.383L149.804 13.9677C149.656 14.3562 149.284 14.6132 148.869 14.6132H145.337V26.0708C145.337 26.6231 144.889 27.0708 144.337 27.0708H143.079Z" fill="white"/>
<path d="M159.311 16.0973V27.0708H158.137C157.585 27.0708 157.137 26.6231 157.137 26.0708V25.3778C156.803 25.8376 156.308 26.2696 155.653 26.6737C154.998 27.0778 154.239 27.2799 153.375 27.2799C152.455 27.2799 151.612 27.036 150.846 26.5483C150.093 26.0606 149.494 25.3847 149.048 24.5208C148.602 23.6568 148.379 22.6675 148.379 21.5527C148.379 20.4379 148.609 19.4555 149.069 18.6055C149.529 17.7416 150.163 17.0727 150.971 16.5989C151.779 16.1112 152.699 15.8674 153.73 15.8674C154.497 15.8674 155.166 16.0346 155.737 16.369C156.322 16.7034 156.789 17.0936 157.137 17.5395V17.0973C157.137 16.545 157.585 16.0973 158.137 16.0973H159.311ZM153.877 25.2942C154.546 25.2942 155.131 25.1339 155.632 24.8134C156.134 24.479 156.524 24.0331 156.803 23.4757C157.082 22.9044 157.221 22.2634 157.221 21.5527C157.221 20.856 157.082 20.2289 156.803 19.6715C156.524 19.1141 156.134 18.6752 155.632 18.3547C155.131 18.0203 154.546 17.853 153.877 17.853C153.236 17.853 152.664 18.0133 152.163 18.3338C151.661 18.6543 151.271 19.0932 150.992 19.6506C150.713 20.208 150.574 20.842 150.574 21.5527C150.574 22.2634 150.713 22.9044 150.992 23.4757C151.271 24.0331 151.661 24.479 152.163 24.8134C152.664 25.1339 153.236 25.2942 153.877 25.2942Z" fill="white"/>
<path d="M167.396 15.8674C168.372 15.8674 169.243 16.1112 170.009 16.5989C170.789 17.0727 171.403 17.7416 171.848 18.6055C172.294 19.4555 172.517 20.4379 172.517 21.5527C172.517 22.6675 172.294 23.6568 171.848 24.5208C171.403 25.3847 170.796 26.0606 170.03 26.5483C169.264 27.036 168.407 27.2799 167.459 27.2799C166.679 27.2799 165.968 27.1126 165.327 26.7782C164.7 26.4298 164.205 26.0397 163.843 25.6077V26.0081C163.843 26.5604 163.395 27.0081 162.843 27.0081H161.69V12.3247C161.69 11.891 161.97 11.5067 162.382 11.3732L163.843 10.9006V17.6858C164.163 17.226 164.644 16.8079 165.285 16.4317C165.926 16.0555 166.63 15.8674 167.396 15.8674ZM167.104 17.8321C166.449 17.8321 165.864 17.9924 165.348 18.3129C164.846 18.6334 164.449 19.0793 164.157 19.6506C163.878 20.208 163.738 20.842 163.738 21.5527C163.738 22.2634 163.878 22.9044 164.157 23.4757C164.449 24.0331 164.846 24.479 165.348 24.8134C165.864 25.1479 166.449 25.3151 167.104 25.3151C167.759 25.3151 168.337 25.1479 168.839 24.8134C169.34 24.479 169.73 24.0331 170.009 23.4757C170.302 22.9044 170.448 22.2634 170.448 21.5527C170.448 20.842 170.302 20.208 170.009 19.6506C169.73 19.0793 169.34 18.6334 168.839 18.3129C168.337 17.9924 167.759 17.8321 167.104 17.8321Z" fill="white"/>
<path d="M175.229 27.0708C174.677 27.0708 174.229 26.6231 174.229 26.0708V12.3246C174.229 11.8909 174.508 11.5067 174.921 11.3732L176.382 10.9004V27.0708H175.229Z" fill="white"/>
<path d="M188.05 25.6286H188.029C187.583 26.0606 186.97 26.4438 186.19 26.7782C185.409 27.1126 184.594 27.2799 183.744 27.2799C182.602 27.2799 181.591 27.043 180.713 26.5692C179.849 26.0815 179.174 25.4196 178.686 24.5835C178.198 23.7335 177.954 22.772 177.954 21.699C177.954 20.4728 178.212 19.4277 178.728 18.5637C179.243 17.6858 179.926 17.017 180.776 16.5571C181.626 16.0833 182.553 15.8465 183.556 15.8465C184.476 15.8465 185.312 16.0764 186.064 16.5362C186.817 16.9821 187.416 17.6022 187.862 18.3965C188.308 19.1908 188.531 20.1174 188.531 21.1765L188.51 22.0962H180.107C180.233 23.0855 180.637 23.8728 181.32 24.4581C182.016 25.0294 182.894 25.3151 183.953 25.3151C184.72 25.3151 185.34 25.1757 185.813 24.897C185.906 24.8398 185.996 24.7832 186.082 24.727C186.583 24.4008 187.279 24.4947 187.615 24.9891L188.05 25.6286ZM183.556 17.8321C182.734 17.8321 182.016 18.0272 181.403 18.4174C180.79 18.7936 180.386 19.4486 180.191 20.3822H186.336V20.2359C186.294 19.7621 186.134 19.3441 185.855 18.9818C185.591 18.6195 185.256 18.3408 184.852 18.1457C184.448 17.9367 184.016 17.8321 183.556 17.8321Z" fill="white"/>
</svg>
