<svg width="250" height="30" viewBox="0 0 250 30" fill="none" xmlns="http://www.w3.org/2000/svg">
<path fill-rule="evenodd" clip-rule="evenodd" d="M172.395 8C170.738 8 169.395 9.34315 169.395 11V23C169.395 24.6569 170.738 26 172.395 26H223.128C224.784 26 226.128 24.6569 226.128 23V11C226.128 9.34315 224.784 8 223.128 8H172.395ZM177.229 12.3744C176.681 12.3744 176.171 12.4774 175.698 12.6845C175.224 12.8919 174.838 13.187 174.543 13.5704L174.542 13.5716C174.252 13.9597 174.108 14.4176 174.108 14.9404C174.108 15.7503 174.358 16.3851 174.87 16.828L174.871 16.8287C175.372 17.2533 176.04 17.548 176.87 17.7178L176.871 17.718C177.506 17.8423 177.988 18.0187 178.322 18.2424L178.323 18.243C178.653 18.4587 178.814 18.7527 178.814 19.1348C178.814 19.3507 178.741 19.5342 178.592 19.6906C178.438 19.853 178.24 19.9786 177.995 20.066C177.748 20.1539 177.488 20.1981 177.216 20.1981C176.64 20.1981 176.179 20.068 175.826 19.8164C175.47 19.5485 175.123 19.1727 174.786 18.6858L174.71 18.5755L173.643 19.8057L173.689 19.8727C174.114 20.4873 174.611 20.936 175.181 21.2132C175.755 21.4884 176.389 21.6255 177.078 21.6255C178.088 21.6255 178.895 21.3741 179.487 20.859C180.08 20.3428 180.374 19.647 180.374 18.7832C180.374 18.2918 180.225 17.8695 179.924 17.5225C179.638 17.1747 179.266 16.894 178.812 16.6792C178.363 16.4664 177.888 16.3089 177.388 16.2068C176.853 16.0911 176.427 15.9396 176.106 15.7547C175.816 15.5752 175.668 15.2977 175.668 14.9027C175.668 14.5604 175.806 14.3 176.086 14.1104C176.382 13.9068 176.749 13.8018 177.191 13.8018C177.631 13.8018 178.011 13.9139 178.334 14.1352C178.663 14.3606 178.936 14.6548 179.154 15.0194L179.222 15.1335L180.325 14.0414L180.285 13.9714C179.992 13.4605 179.585 13.0657 179.067 12.7885C178.549 12.5109 177.934 12.3744 177.229 12.3744ZM220.424 13.0148H218.927V14.6976H217.563V16.1627H218.927V21.4999H220.424V16.1627H221.951V14.6976H220.424V13.0148ZM206.426 15.0129C206.952 14.7102 207.537 14.5595 208.18 14.5595C208.822 14.5595 209.404 14.7101 209.922 15.0131C210.447 15.3154 210.86 15.7348 211.161 16.2695C211.472 16.7981 211.626 17.4069 211.626 18.0925C211.626 18.7783 211.472 19.3911 211.161 19.9278C210.86 20.4545 210.446 20.8697 209.922 21.1719C209.404 21.4749 208.822 21.6255 208.18 21.6255C207.537 21.6255 206.952 21.4748 206.426 21.1721C205.901 20.87 205.484 20.4551 205.174 19.9289L205.173 19.9272C204.871 19.3906 204.722 18.778 204.722 18.0925C204.722 17.407 204.872 16.7979 205.174 16.2693C205.483 15.7346 205.901 15.3152 206.426 15.0129ZM208.18 15.9492C207.814 15.9492 207.483 16.0407 207.183 16.223L207.182 16.2234C206.891 16.397 206.658 16.6459 206.482 16.9736C206.317 17.2903 206.236 17.6615 206.244 18.0905L206.244 18.0945C206.236 18.5143 206.317 18.8857 206.482 19.2113C206.658 19.5304 206.891 19.78 207.183 19.9624C207.483 20.1445 207.815 20.2358 208.18 20.2358C208.545 20.2358 208.872 20.1444 209.164 19.9627C209.456 19.7803 209.685 19.5308 209.852 19.2118L209.853 19.2109C210.027 18.8853 210.111 18.5141 210.103 18.0945L210.103 18.0905C210.111 17.6621 210.027 17.2914 209.853 16.975L209.852 16.9723C209.685 16.6453 209.456 16.3968 209.165 16.2234L209.164 16.2223C208.872 16.0406 208.545 15.9492 208.18 15.9492ZM216.23 14.5595C215.797 14.5595 215.385 14.6971 214.994 14.9672L214.993 14.9679C214.727 15.1565 214.506 15.3818 214.332 15.6434V14.6976H212.822V21.4999H214.332V17.7534C214.332 17.419 214.411 17.1387 214.564 16.9075C214.731 16.6616 214.934 16.4773 215.176 16.352L215.179 16.3508C215.424 16.216 215.669 16.1502 215.917 16.1502C216.042 16.1502 216.157 16.1658 216.264 16.1964L216.268 16.1975L216.272 16.1984C216.391 16.2223 216.486 16.2533 216.559 16.2898L216.676 16.3487L217.064 14.7333L216.99 14.6961C216.802 14.6019 216.545 14.5595 216.23 14.5595ZM191.55 14.9246C191.95 14.6977 192.389 14.5846 192.866 14.5846C193.467 14.5846 194.008 14.7358 194.485 15.0399C194.969 15.3349 195.348 15.7469 195.624 16.2732C195.9 16.8011 196.036 17.4085 196.036 18.0925C196.036 18.7684 195.899 19.376 195.624 19.9118C195.349 20.4377 194.973 20.8537 194.498 21.1571C194.022 21.4613 193.489 21.613 192.903 21.613C192.42 21.613 191.978 21.509 191.578 21.2997L191.578 21.2993C191.289 21.1447 191.043 20.9718 190.842 20.7799V24.2627H189.332V14.6851H190.842V15.4635C191.028 15.2657 191.265 15.0863 191.55 14.9246ZM191.695 16.2596C191.411 16.4417 191.186 16.6911 191.018 17.0104C190.86 17.3198 190.78 17.6796 190.78 18.0925C190.78 18.4964 190.86 18.8565 191.019 19.175C191.186 19.4941 191.411 19.7479 191.696 19.9384C191.986 20.1193 192.317 20.2106 192.69 20.2106C193.064 20.2106 193.39 20.1192 193.672 19.9388C193.956 19.7484 194.178 19.4948 194.337 19.1759L194.338 19.1741C194.504 18.8557 194.588 18.496 194.588 18.0925C194.588 17.6802 194.504 17.321 194.338 17.0119L194.337 17.0091C194.178 16.6903 193.957 16.4412 193.673 16.2593C193.391 16.0785 193.065 15.9869 192.69 15.9869C192.316 15.9869 191.985 16.0784 191.695 16.2596ZM200.761 14.5846C200.284 14.5846 199.845 14.6977 199.445 14.9246C199.16 15.0863 198.923 15.2657 198.737 15.4635V14.6851H197.227V24.2627H198.737V20.7799C198.938 20.9718 199.184 21.1447 199.472 21.2993L199.473 21.2997C199.873 21.509 200.315 21.613 200.798 21.613C201.384 21.613 201.917 21.4613 202.393 21.1571C202.868 20.8537 203.244 20.4377 203.518 19.9118C203.794 19.376 203.931 18.7684 203.931 18.0925C203.931 17.4085 203.794 16.8011 203.518 16.2732C203.243 15.7469 202.864 15.3349 202.38 15.0399C201.903 14.7358 201.362 14.5846 200.761 14.5846ZM198.913 17.0104C199.08 16.6911 199.306 16.4417 199.59 16.2596C199.88 16.0784 200.211 15.9869 200.585 15.9869C200.96 15.9869 201.286 16.0785 201.568 16.2593C201.852 16.4412 202.073 16.6903 202.232 17.0091L202.233 17.0119C202.399 17.321 202.483 17.6802 202.483 18.0925C202.483 18.496 202.399 18.8558 202.233 19.1741L202.232 19.1759C202.073 19.4948 201.851 19.7484 201.567 19.9388C201.285 20.1192 200.959 20.2106 200.585 20.2106C200.212 20.2106 199.881 20.1193 199.591 19.9384C199.306 19.7479 199.081 19.4941 198.914 19.175C198.755 18.8565 198.675 18.4964 198.675 18.0925C198.675 17.6796 198.755 17.3198 198.913 17.0104ZM181.755 14.6976H183.253V18.5195C183.253 18.8433 183.301 19.1407 183.396 19.4127C183.498 19.6793 183.653 19.8926 183.861 20.0555C184.073 20.2067 184.346 20.286 184.688 20.286C185.114 20.286 185.477 20.152 185.783 19.8848C186.081 19.6236 186.235 19.2571 186.235 18.7706V14.6976H187.733V21.4999H186.235V20.6617C186.053 20.8798 185.821 21.0785 185.545 21.2575C185.158 21.5045 184.695 21.6255 184.162 21.6255C183.451 21.6255 182.867 21.3806 182.42 20.8881C181.973 20.3947 181.755 19.7178 181.755 18.8711V14.6976Z" fill="white"/>
<path d="M32.4004 12.2685C32.4602 12.5085 32.52 11.9291 32.4004 12.2685C31.6829 14.0685 27.9213 15.96 25.7688 15.78C28.3997 11.52 28.76 7.5 28.76 4.8C28.76 1.8 27.9229 0 27.9229 0C24.6344 4.26 17.8779 5.58 12.3172 6C12.3172 6 12.3172 6 12.377 5.94C12.377 5.94 12.377 5.94 12.3172 5.94C13.7522 4.38 14.7089 3.3 15.4264 1.14C12.4368 3.6 8.19153 3.66 4.84317 5.7C1.79377 7.56 0.179376 10.02 0 13.8C0 13.86 0 13.98 0 14.04V23.16C0 26.46 2.69065 29.2794 5.91942 29.2794H19.5205C26.2703 29.2794 28.9267 22.1313 32.4004 12.2685Z" fill="#FFC107"/>
<mask id="mask0" mask-type="alpha" maskUnits="userSpaceOnUse" x="0" y="0" width="33" height="30">
<path d="M32.4004 12.2685C32.4602 12.5085 32.52 11.9291 32.4004 12.2685C31.6829 14.0685 27.9213 15.96 25.7688 15.78C28.3997 11.52 28.76 7.5 28.76 4.8C28.76 1.8 27.9229 0 27.9229 0C24.6344 4.26 17.8779 5.58 12.3172 6C12.3172 6 12.3172 6 12.377 5.94C12.377 5.94 12.377 5.94 12.3172 5.94C13.7522 4.38 14.7089 3.3 15.4264 1.14C12.4368 3.6 8.19153 3.66 4.84317 5.7C1.79377 7.56 0.179376 10.02 0 13.8C0 13.86 0 13.98 0 14.04V23.16C0 26.46 2.69065 29.2794 5.91942 29.2794H19.5205C26.2703 29.2794 28.9267 22.1313 32.4004 12.2685Z" fill="#FFC107"/>
</mask>
<g mask="url(#mask0)">
<path d="M26.9664 15.3601C26.3087 15.7201 25.8385 15.7484 25.8385 15.7484L25.9273 15.6787C26.2262 15.1387 26.1851 15.2458 26.4841 14.7658L22.482 10.8601L20.748 13.2001L3.40826 15.6001L5.97933 18.1801L3.40826 20.6401L5.97933 23.2201L4.24535 25.0801L8.38762 29.6739L14.0217 35.1025C14.0217 35.5563 28.4182 31.9208 28.8466 29.6739C32.2744 29.0831 36.1306 25.0801 29.5972 18.0001L26.9664 15.3601Z" fill="#FFA000"/>
</g>
<path d="M12.1976 16.8601H3.28857V20.5801H12.1976V16.8601Z" fill="white"/>
<path d="M13.5729 25.92H18.8944C20.8675 25.92 22.4819 24.3 22.4819 22.32V21.84H13.5729V25.92Z" fill="white"/>
<path d="M22.4819 16.8601H13.5729V20.5801H22.4819V16.8601Z" fill="white"/>
<path d="M16.084 11.5801H5.68019C4.42456 11.5801 3.3483 12.6001 3.3483 13.9201V15.5401H22.4818V10.8601C21.7045 11.0401 19.6716 11.5201 16.084 11.5801Z" fill="white"/>
<path d="M3.28857 22.9801C3.28857 24.6001 4.604 25.9801 6.27818 25.9801H12.1976V21.9601H3.28857V22.9801Z" fill="white"/>
<path d="M46.3446 23.3123C45.9287 23.3123 45.5562 23.0549 45.4092 22.6659L44.4696 20.1803H39.905C39.4891 20.1803 39.1166 20.4377 38.9696 20.8268L38.2744 22.6659C38.1273 23.0549 37.7549 23.3123 37.339 23.3123H36.0569L40.6711 11.3524C40.8199 10.9667 41.1906 10.7123 41.604 10.7123H42.8911L47.7164 23.3123H46.3446ZM40.8821 15.7883L39.9314 18.3083H43.7701L42.7835 15.7163C42.628 15.2963 42.4726 14.8463 42.3171 14.3663C42.1617 13.8743 42.0062 13.3823 41.8507 12.8903C41.6833 13.3943 41.5159 13.8983 41.3485 14.4023C41.193 14.9063 41.0376 15.3683 40.8821 15.7883Z" fill="white"/>
<path d="M61.3778 13.8623L57.6049 23.3123H56.9852C56.588 23.3123 56.2284 23.0773 56.0691 22.7134L53.9277 17.8223L51.9395 22.6904C51.7859 23.0665 51.42 23.3123 51.0137 23.3123H50.4298L46.6211 13.8623L47.8129 13.8508C48.2202 13.8469 48.5891 14.0903 48.7457 14.4662L51.2012 20.3603L53.4613 15.3563H54.5734L56.8157 20.2883L59.255 14.4754C59.4109 14.104 59.7743 13.8623 60.1771 13.8623H61.3778Z" fill="white"/>
<path d="M70.3494 22.0703H70.3315C69.9488 22.4423 69.4226 22.7723 68.753 23.0603C68.0833 23.3483 67.3837 23.4923 66.6543 23.4923C65.6737 23.4923 64.8067 23.2883 64.0533 22.8803C63.3119 22.4603 62.7319 21.8903 62.3134 21.1703C61.8948 20.4383 61.6855 19.6103 61.6855 18.6863C61.6855 17.6303 61.9068 16.7303 62.3492 15.9863C62.7917 15.2303 63.3777 14.6543 64.1071 14.2583C64.8366 13.8503 65.6318 13.6463 66.4928 13.6463C67.2821 13.6463 67.9996 13.8443 68.6453 14.2403C69.2911 14.6243 69.8053 15.1583 70.188 15.8423C70.5707 16.5263 70.762 17.3243 70.762 18.2363L70.7441 19.0283H63.5331C63.6407 19.8803 63.9875 20.5583 64.5735 21.0623C65.1714 21.5543 65.9248 21.8003 66.8336 21.8003C67.4914 21.8003 68.0235 21.6803 68.4301 21.4403C68.4619 21.4206 68.4933 21.401 68.5242 21.3814C69.0306 21.0611 69.7302 21.1566 70.0663 21.6526L70.3494 22.0703ZM66.4928 15.3563C65.7873 15.3563 65.1714 15.5243 64.6453 15.8603C64.1191 16.1843 63.7723 16.7483 63.6049 17.5523H68.8785V17.4263C68.8427 17.0183 68.7051 16.6583 68.466 16.3463C68.2388 16.0343 67.9518 15.7943 67.605 15.6263C67.2582 15.4463 66.8875 15.3563 66.4928 15.3563Z" fill="white"/>
<path d="M78.3734 15.5653C77.9892 15.9899 77.3304 15.9942 76.8412 15.6967C76.7369 15.6333 76.6294 15.5738 76.5188 15.5183C76.1003 15.3023 75.7117 15.1943 75.3529 15.1943C75.1018 15.1943 74.8506 15.2243 74.5995 15.2843C74.3604 15.3443 74.1571 15.4583 73.9896 15.6263C73.8222 15.7823 73.7385 16.0163 73.7385 16.3283C73.7505 16.7603 73.9418 17.0663 74.3125 17.2463C74.6952 17.4263 75.1675 17.5883 75.7296 17.7323C76.2199 17.8643 76.6982 18.0323 77.1646 18.2363C77.631 18.4283 78.0137 18.7163 78.3126 19.1003C78.6235 19.4723 78.779 20.0003 78.779 20.6843C78.779 21.2723 78.6116 21.7763 78.2767 22.1963C77.9539 22.6163 77.5293 22.9403 77.0032 23.1683C76.489 23.3843 75.9448 23.4923 75.3708 23.4923C74.6892 23.4923 74.0136 23.3723 73.3439 23.1323C72.6862 22.8803 72.1241 22.4543 71.6577 21.8543L72.1586 21.4235C72.576 21.0645 73.1976 21.1267 73.6507 21.4393C73.7658 21.5188 73.8848 21.5911 74.0076 21.6563C74.4261 21.8603 74.9344 21.9623 75.5323 21.9623C75.7595 21.9623 75.9867 21.9263 76.2139 21.8543C76.4411 21.7703 76.6325 21.6443 76.7879 21.4763C76.9553 21.2963 77.039 21.0563 77.039 20.7563C77.039 20.4683 76.9494 20.2463 76.77 20.0903C76.6026 19.9223 76.3753 19.7903 76.0883 19.6943C75.8013 19.5863 75.4844 19.4903 75.1377 19.4063C74.6234 19.2623 74.1152 19.0883 73.613 18.8843C73.1227 18.6683 72.7101 18.3683 72.3753 17.9843C72.0524 17.5883 71.8909 17.0543 71.8909 16.3823C71.8909 15.8183 72.0464 15.3383 72.3573 14.9423C72.6802 14.5343 73.0987 14.2223 73.613 14.0063C74.1272 13.7783 74.6772 13.6643 75.2632 13.6643C75.8253 13.6643 76.4351 13.7843 77.0929 14.0243C77.7506 14.2643 78.2947 14.6483 78.7252 15.1763L78.3734 15.5653Z" fill="white"/>
<path d="M89.2997 18.5783C89.2997 19.5383 89.0845 20.3903 88.654 21.1343C88.2354 21.8663 87.6614 22.4423 86.9319 22.8623C86.2144 23.2823 85.4072 23.4923 84.5104 23.4923C83.6135 23.4923 82.8003 23.2823 82.0708 22.8623C81.3414 22.4423 80.7614 21.8663 80.3309 21.1343C79.9123 20.3903 79.7031 19.5383 79.7031 18.5783C79.7031 17.6183 79.9123 16.7723 80.3309 16.0403C80.7614 15.2963 81.3414 14.7143 82.0708 14.2943C82.8003 13.8743 83.6135 13.6643 84.5104 13.6643C85.4072 13.6643 86.2144 13.8743 86.9319 14.2943C87.6614 14.7143 88.2354 15.2963 88.654 16.0403C89.0845 16.7723 89.2997 17.6183 89.2997 18.5783ZM87.4163 18.5783C87.4282 17.9423 87.3027 17.3843 87.0396 16.9043C86.7884 16.4123 86.4416 16.0343 85.9992 15.7703C85.5567 15.4943 85.0604 15.3563 84.5104 15.3563C83.9603 15.3563 83.458 15.4943 83.0036 15.7703C82.5611 16.0343 82.2084 16.4123 81.9453 16.9043C81.6941 17.3843 81.5746 17.9423 81.5865 18.5783C81.5746 19.2023 81.6941 19.7603 81.9453 20.2523C82.2084 20.7323 82.5611 21.1103 83.0036 21.3863C83.458 21.6623 83.9603 21.8003 84.5104 21.8003C85.0604 21.8003 85.5567 21.6623 85.9992 21.3863C86.4416 21.1103 86.7884 20.7323 87.0396 20.2523C87.3027 19.7603 87.4282 19.2023 87.4163 18.5783Z" fill="white"/>
<path d="M95.5642 13.7003C96.3414 13.7003 96.9633 13.8803 97.4297 14.2403C97.896 14.5883 98.2309 15.0683 98.4342 15.6803C98.6016 15.3803 98.8467 15.0803 99.1696 14.7803C99.4925 14.4683 99.8692 14.2103 100.3 14.0063C100.73 13.8023 101.191 13.7003 101.681 13.7003C102.494 13.7003 103.128 13.8803 103.582 14.2403C104.037 14.5883 104.354 15.0623 104.533 15.6623C104.724 16.2503 104.82 16.9103 104.82 17.6423V23.3123H103.954C103.402 23.3123 102.954 22.8646 102.954 22.3123V17.7503C102.954 17.0543 102.823 16.4903 102.56 16.0583C102.297 15.6263 101.8 15.4103 101.071 15.4103C100.377 15.4103 99.8034 15.6323 99.349 16.0763C98.9065 16.5083 98.6853 17.0363 98.6853 17.6603V23.3123H97.8198C97.2675 23.3123 96.8198 22.8646 96.8198 22.3123V17.7143C96.8198 17.0423 96.6763 16.4903 96.3893 16.0583C96.1023 15.6263 95.6299 15.4103 94.9722 15.4103C94.5178 15.4103 94.1112 15.5123 93.7524 15.7163C93.3937 15.9203 93.1127 16.1903 92.9094 16.5263C92.7061 16.8503 92.6044 17.2163 92.6044 17.6243V22.3123C92.6044 22.8646 92.1567 23.3123 91.6044 23.3123H90.7389V14.8623C90.7389 14.31 91.1866 13.8623 91.7389 13.8623H92.6044V15.3743C92.8914 14.9423 93.292 14.5583 93.8063 14.2223C94.3324 13.8743 94.9184 13.7003 95.5642 13.7003Z" fill="white"/>
<path d="M114.845 22.0703H114.827C114.445 22.4423 113.919 22.7723 113.249 23.0603C112.579 23.3483 111.88 23.4923 111.15 23.4923C110.17 23.4923 109.303 23.2883 108.549 22.8803C107.808 22.4603 107.228 21.8903 106.809 21.1703C106.391 20.4383 106.181 19.6103 106.181 18.6863C106.181 17.6303 106.403 16.7303 106.845 15.9863C107.288 15.2303 107.874 14.6543 108.603 14.2583C109.332 13.8503 110.128 13.6463 110.989 13.6463C111.778 13.6463 112.495 13.8443 113.141 14.2403C113.787 14.6243 114.301 15.1583 114.684 15.8423C115.067 16.5263 115.258 17.3243 115.258 18.2363L115.24 19.0283H108.029C108.137 19.8803 108.483 20.5583 109.069 21.0623C109.667 21.5543 110.421 21.8003 111.33 21.8003C111.987 21.8003 112.519 21.6803 112.926 21.4403C112.958 21.4206 112.989 21.401 113.02 21.3814C113.526 21.0611 114.226 21.1566 114.562 21.6526L114.845 22.0703ZM110.989 15.3563C110.283 15.3563 109.667 15.5243 109.141 15.8603C108.615 16.1843 108.268 16.7483 108.101 17.5523H113.374V17.4263C113.339 17.0183 113.201 16.6583 112.962 16.3463C112.735 16.0343 112.448 15.7943 112.101 15.6263C111.754 15.4463 111.383 15.3563 110.989 15.3563Z" fill="white"/>
<path d="M122.389 23.3123V12.5843H118.14L118.624 11.3474C118.775 10.9643 119.144 10.7123 119.555 10.7123H128.657L128.194 11.9377C128.047 12.3268 127.675 12.5843 127.259 12.5843H124.326V22.3123C124.326 22.8646 123.879 23.3123 123.326 23.3123H122.389Z" fill="white"/>
<path d="M136.319 13.8623V23.3123H135.453C134.901 23.3123 134.453 22.8646 134.453 22.3123V21.8543C134.166 22.2503 133.742 22.6223 133.18 22.9703C132.618 23.3183 131.966 23.4923 131.225 23.4923C130.435 23.4923 129.712 23.2823 129.054 22.8623C128.408 22.4423 127.894 21.8603 127.511 21.1163C127.129 20.3723 126.937 19.5203 126.937 18.5603C126.937 17.6003 127.135 16.7543 127.529 16.0223C127.924 15.2783 128.468 14.7023 129.162 14.2943C129.855 13.8743 130.645 13.6643 131.529 13.6643C132.187 13.6643 132.761 13.8083 133.251 14.0963C133.754 14.3843 134.154 14.7203 134.453 15.1043V14.8623C134.453 14.31 134.901 13.8623 135.453 13.8623H136.319ZM131.655 21.7823C132.229 21.7823 132.731 21.6443 133.162 21.3683C133.592 21.0803 133.927 20.6963 134.166 20.2163C134.405 19.7243 134.525 19.1723 134.525 18.5603C134.525 17.9603 134.405 17.4203 134.166 16.9403C133.927 16.4603 133.592 16.0823 133.162 15.8063C132.731 15.5183 132.229 15.3743 131.655 15.3743C131.105 15.3743 130.615 15.5123 130.184 15.7883C129.754 16.0643 129.419 16.4423 129.18 16.9223C128.94 17.4023 128.821 17.9483 128.821 18.5603C128.821 19.1723 128.94 19.7243 129.18 20.2163C129.419 20.6963 129.754 21.0803 130.184 21.3683C130.615 21.6443 131.105 21.7823 131.655 21.7823Z" fill="white"/>
<path d="M143.257 13.6643C144.094 13.6643 144.842 13.8743 145.5 14.2943C146.169 14.7023 146.695 15.2783 147.078 16.0223C147.461 16.7543 147.652 17.6003 147.652 18.5603C147.652 19.5203 147.461 20.3723 147.078 21.1163C146.695 21.8603 146.175 22.4423 145.517 22.8623C144.86 23.2823 144.124 23.4923 143.311 23.4923C142.641 23.4923 142.032 23.3483 141.482 23.0603C140.943 22.7603 140.519 22.4243 140.208 22.0523V22.2583C140.208 22.8106 139.76 23.2583 139.208 23.2583H138.36V10.7137C138.36 10.2804 138.639 9.89641 139.052 9.7626L140.208 9.38718V15.2303C140.483 14.8343 140.896 14.4743 141.446 14.1503C141.996 13.8263 142.6 13.6643 143.257 13.6643ZM143.006 15.3563C142.444 15.3563 141.942 15.4943 141.499 15.7703C141.069 16.0463 140.728 16.4303 140.477 16.9223C140.238 17.4023 140.118 17.9483 140.118 18.5603C140.118 19.1723 140.238 19.7243 140.477 20.2163C140.728 20.6963 141.069 21.0803 141.499 21.3683C141.942 21.6563 142.444 21.8003 143.006 21.8003C143.568 21.8003 144.065 21.6563 144.495 21.3683C144.926 21.0803 145.26 20.6963 145.5 20.2163C145.751 19.7243 145.876 19.1723 145.876 18.5603C145.876 17.9483 145.751 17.4023 145.5 16.9223C145.26 16.4303 144.926 16.0463 144.495 15.7703C144.065 15.4943 143.568 15.3563 143.006 15.3563Z" fill="white"/>
<path d="M150.121 23.3123C149.569 23.3123 149.121 22.8646 149.121 22.3123V10.7137C149.121 10.2804 149.4 9.89639 149.812 9.76256L150.968 9.38701V23.3123H150.121Z" fill="white"/>
<path d="M160.982 22.0703H160.964C160.581 22.4423 160.055 22.7723 159.385 23.0603C158.716 23.3483 158.016 23.4923 157.287 23.4923C156.306 23.4923 155.439 23.2883 154.686 22.8803C153.944 22.4603 153.364 21.8903 152.946 21.1703C152.527 20.4383 152.318 19.6103 152.318 18.6863C152.318 17.6303 152.539 16.7303 152.982 15.9863C153.424 15.2303 154.01 14.6543 154.74 14.2583C155.469 13.8503 156.264 13.6463 157.125 13.6463C157.915 13.6463 158.632 13.8443 159.278 14.2403C159.924 14.6243 160.438 15.1583 160.82 15.8423C161.203 16.5263 161.394 17.3243 161.394 18.2363L161.376 19.0283H154.166C154.273 19.8803 154.62 20.5583 155.206 21.0623C155.804 21.5543 156.557 21.8003 157.466 21.8003C158.124 21.8003 158.656 21.6803 159.063 21.4403C159.094 21.4206 159.126 21.401 159.157 21.3814C159.663 21.0611 160.363 21.1566 160.699 21.6526L160.982 22.0703ZM157.125 15.3563C156.42 15.3563 155.804 15.5243 155.278 15.8603C154.752 16.1843 154.405 16.7483 154.237 17.5523H159.511V17.4263C159.475 17.0183 159.338 16.6583 159.098 16.3463C158.871 16.0343 158.584 15.7943 158.237 15.6263C157.891 15.4463 157.52 15.3563 157.125 15.3563Z" fill="white"/>
</svg>
