<svg width="106" height="40" viewBox="0 0 106 40" fill="none" xmlns="http://www.w3.org/2000/svg">
<path d="M0 6C0 2.68629 2.68629 0 6 0H40V40H6C2.68629 40 0 37.3137 0 34V6Z" fill="#2050E0"/>
<path d="M40 0H100C103.314 0 106 2.68629 106 6V34C106 37.3137 103.314 40 100 40H40V0Z" fill="white"/>
<path d="M20 6L20.4535 7.46796H21.9215L20.734 8.37518L21.1875 9.84314L20 8.93534L18.8127 9.84314L19.2663 8.37518L18.0784 7.46796H19.5463L20 6Z" fill="#FFE600"/>
<path d="M20 30.157L20.4535 31.6254H21.9215L20.734 32.5325L21.1875 34.0001L20 33.0931L18.8127 34.0001L19.2663 32.5325L18.0784 31.6254H19.5463L20 30.157Z" fill="#FFE600"/>
<path d="M26.0392 8.19604L26.4926 9.66399H27.9608L26.773 10.5716L27.2267 12.0392L26.0392 11.1316L24.8515 12.0392L25.3052 10.5716L24.1177 9.66399H25.5859L26.0392 8.19604Z" fill="#FFE600"/>
<path d="M30.9218 24L31.3751 25.4684H32.8431L31.6555 26.3756L32.1094 27.8431L30.9218 26.9363L29.734 27.8431L30.1877 26.3756L29 25.4684H30.4681L30.9218 24Z" fill="#FFE600"/>
<path d="M32.0787 18.0784L32.532 19.5462H34.0001L32.8125 20.4533L33.2661 21.9215L32.0787 21.0147L30.891 21.9215L31.3449 20.4533L30.157 19.5462H31.6248L32.0787 18.0784Z" fill="#FFE600"/>
<path d="M7.92184 18.0784L8.37523 19.5462H9.84314L8.6554 20.4533L9.10934 21.9215L7.92184 21.0147L6.73403 21.9215L7.18773 20.4533L6 19.5462H7.46814L7.92184 18.0784Z" fill="#FFE600"/>
<path d="M8.92184 24L9.37523 25.4684H10.8431L9.65572 26.3756L10.109 27.8431L8.92184 26.9363L7.73411 27.8431L8.18773 26.3756L7 25.4684H8.46822L8.92184 24Z" fill="#FFE600"/>
<path d="M30.9218 12L31.3751 13.4684H32.8431L31.6555 14.3756L32.1094 15.8431L30.9218 14.9363L29.734 15.8431L30.1877 14.3756L29 13.4684H30.4681L30.9218 12Z" fill="#FFE600"/>
<path d="M9.42184 12L9.87523 13.4684H11.3431L10.1557 14.3756L10.609 15.8431L9.42184 14.9363L8.23411 15.8431L8.68773 14.3756L7.5 13.4684H8.96822L9.42184 12Z" fill="#FFE600"/>
<path d="M27.1373 29.0588L27.5906 30.5266H29.0587L27.8708 31.4342L28.3247 32.902L27.1373 31.9949L25.9493 32.902L26.4033 31.4342L25.2156 30.5266H26.6837L27.1373 29.0588Z" fill="#FFE600"/>
<path d="M13.9609 8.19604L14.4142 9.66399H15.8824L14.6947 10.5716L15.1486 12.0392L13.9609 11.1316L12.7734 12.0392L13.227 10.5716L12.0393 9.66399H13.5072L13.9609 8.19604Z" fill="#FFE600"/>
<path d="M12.8626 29.0588L13.3162 30.5273H14.7843L13.5967 31.4341L14.0503 32.902L12.8626 31.9954L11.6752 32.902L12.1288 31.4341L10.9412 30.5273H12.4089L12.8626 29.0588Z" fill="#FFE600"/>
<path fill-rule="evenodd" clip-rule="evenodd" d="M47 15.5957C47 18.4198 49.1632 20.1915 51.8205 20.1915C53.503 20.1915 54.7982 19.5121 55.7596 18.4598V14.983H51.4599V16.8879H53.503V17.6339C53.1424 17.9269 52.5148 18.1667 51.8205 18.1667C50.365 18.1667 49.3368 17.0477 49.3368 15.5957C49.3368 14.1438 50.365 13.0248 51.8205 13.0248C52.6617 13.0248 53.3427 13.491 53.7033 14.0772L55.6261 13.0648C54.9718 11.9591 53.77 11 51.8205 11C49.1632 11 47 12.7717 47 15.5957ZM57.1083 20.0316V11.1465H60.8472C63.6513 11.1465 65.6677 12.825 65.6677 15.5824C65.6677 18.3399 63.6513 20.0316 60.8605 20.0316H57.1083ZM59.405 18.0335H60.8472C62.4095 18.0335 63.3175 16.9012 63.3175 15.5824C63.3175 14.2104 62.4896 13.1447 60.8605 13.1447H59.405V18.0335ZM66.816 20.0316V11.1465H71.276C73.2789 11.1465 74.3739 12.492 74.3739 14.1038C74.3739 15.7023 73.2789 17.0211 71.276 17.0211H69.1128V20.0316H66.816ZM72.0371 14.0905C72.0371 13.4777 71.5831 13.0781 70.9688 13.0781H69.1128V15.0762H70.9688C71.5831 15.0762 72.0371 14.6899 72.0371 14.0905ZM80.3694 20.0316L78.8739 17.0211H77.6988V20.0316H75.4021V11.1465H79.862C81.8383 11.1465 82.9599 12.452 82.9599 14.1038C82.9599 15.649 82.0119 16.4749 81.184 16.768L83 20.0316H80.3694ZM80.6231 14.0772C80.6231 13.4644 80.1157 13.0781 79.5148 13.0781H77.6988V15.0762H79.5148C80.1157 15.0762 80.6231 14.6899 80.6231 14.0772Z" fill="#2B3945"/>
<path fill-rule="evenodd" clip-rule="evenodd" d="M22.7143 19.1364H23.1429C23.6161 19.1364 24 19.5334 24 20.0227V23.5682C24 24.0575 23.6161 24.4545 23.1429 24.4545H16.8571C16.3839 24.4545 16 24.0575 16 23.5682V20.0227C16 19.5334 16.3839 19.1364 16.8571 19.1364H17.2857V17.8068C17.2857 16.2594 18.5036 15 20 15C21.4964 15 22.7143 16.2594 22.7143 17.8068V19.1364ZM18.7143 17.8068V19.1364H21.2857V17.8068C21.2857 17.0737 20.7089 16.4773 20 16.4773C19.2911 16.4773 18.7143 17.0737 18.7143 17.8068Z" fill="white"/>
<path d="M51.464 27.104C51.4213 26.9387 51.3627 26.7867 51.288 26.648C51.2133 26.5093 51.1173 26.3893 51 26.288C50.8827 26.1867 50.744 26.1093 50.584 26.056C50.4293 25.9973 50.248 25.968 50.04 25.968C49.736 25.968 49.472 26.0293 49.248 26.152C49.0293 26.2747 48.8507 26.44 48.712 26.648C48.5733 26.8507 48.4693 27.0827 48.4 27.344C48.336 27.6053 48.304 27.872 48.304 28.144C48.304 28.416 48.336 28.6827 48.4 28.944C48.4693 29.2053 48.5733 29.44 48.712 29.648C48.8507 29.8507 49.0293 30.0133 49.248 30.136C49.472 30.2587 49.736 30.32 50.04 30.32C50.264 30.32 50.4613 30.2827 50.632 30.208C50.8027 30.128 50.9493 30.0213 51.072 29.888C51.1947 29.7493 51.2907 29.5893 51.36 29.408C51.4293 29.2267 51.4747 29.032 51.496 28.824H52.472C52.4507 29.1653 52.376 29.4773 52.248 29.76C52.1253 30.0427 51.9573 30.288 51.744 30.496C51.5307 30.6987 51.28 30.856 50.992 30.968C50.704 31.08 50.3867 31.136 50.04 31.136C49.6133 31.136 49.2293 31.0587 48.888 30.904C48.552 30.744 48.2667 30.528 48.032 30.256C47.7973 29.984 47.616 29.6667 47.488 29.304C47.3653 28.9413 47.304 28.5547 47.304 28.144C47.304 27.7387 47.3653 27.3547 47.488 26.992C47.616 26.6293 47.7973 26.312 48.032 26.04C48.2667 25.768 48.552 25.552 48.888 25.392C49.2293 25.232 49.6133 25.152 50.04 25.152C50.36 25.152 50.6613 25.1973 50.944 25.288C51.2267 25.3733 51.4747 25.5013 51.688 25.672C51.9067 25.8373 52.0827 26.04 52.216 26.28C52.3493 26.52 52.432 26.7947 52.464 27.104H51.464ZM56.0134 25.968C55.7094 25.968 55.4454 26.0293 55.2214 26.152C55.0028 26.2747 54.8241 26.44 54.6854 26.648C54.5468 26.8507 54.4428 27.0827 54.3734 27.344C54.3094 27.6053 54.2774 27.872 54.2774 28.144C54.2774 28.416 54.3094 28.6827 54.3734 28.944C54.4428 29.2053 54.5468 29.44 54.6854 29.648C54.8241 29.8507 55.0028 30.0133 55.2214 30.136C55.4454 30.2587 55.7094 30.32 56.0134 30.32C56.3174 30.32 56.5788 30.2587 56.7974 30.136C57.0214 30.0133 57.2028 29.8507 57.3414 29.648C57.4801 29.44 57.5814 29.2053 57.6454 28.944C57.7148 28.6827 57.7494 28.416 57.7494 28.144C57.7494 27.872 57.7148 27.6053 57.6454 27.344C57.5814 27.0827 57.4801 26.8507 57.3414 26.648C57.2028 26.44 57.0214 26.2747 56.7974 26.152C56.5788 26.0293 56.3174 25.968 56.0134 25.968ZM56.0134 25.152C56.4401 25.152 56.8214 25.232 57.1574 25.392C57.4988 25.552 57.7868 25.768 58.0214 26.04C58.2561 26.312 58.4348 26.6293 58.5574 26.992C58.6854 27.3547 58.7494 27.7387 58.7494 28.144C58.7494 28.5547 58.6854 28.9413 58.5574 29.304C58.4348 29.6667 58.2561 29.984 58.0214 30.256C57.7868 30.528 57.4988 30.744 57.1574 30.904C56.8214 31.0587 56.4401 31.136 56.0134 31.136C55.5868 31.136 55.2028 31.0587 54.8614 30.904C54.5254 30.744 54.2401 30.528 54.0054 30.256C53.7708 29.984 53.5894 29.6667 53.4614 29.304C53.3388 28.9413 53.2774 28.5547 53.2774 28.144C53.2774 27.7387 53.3388 27.3547 53.4614 26.992C53.5894 26.6293 53.7708 26.312 54.0054 26.04C54.2401 25.768 54.5254 25.552 54.8614 25.392C55.2028 25.232 55.5868 25.152 56.0134 25.152ZM59.8436 25.288H61.2516L62.8276 29.76H62.8436L64.3796 25.288H65.7716V31H64.8196V26.592H64.8036L63.2196 31H62.3956L60.8116 26.592H60.7956V31H59.8436V25.288ZM67.1689 25.288H69.6889C70.0943 25.288 70.4249 25.3467 70.6809 25.464C70.9369 25.5813 71.1343 25.728 71.2729 25.904C71.4116 26.08 71.5049 26.272 71.5529 26.48C71.6063 26.688 71.6329 26.88 71.6329 27.056C71.6329 27.232 71.6063 27.424 71.5529 27.632C71.5049 27.8347 71.4116 28.024 71.2729 28.2C71.1343 28.376 70.9369 28.5227 70.6809 28.64C70.4249 28.752 70.0943 28.808 69.6889 28.808H68.1689V31H67.1689V25.288ZM68.1689 27.992H69.6329C69.7449 27.992 69.8596 27.976 69.9769 27.944C70.0943 27.912 70.2009 27.8613 70.2969 27.792C70.3983 27.7173 70.4783 27.6213 70.5369 27.504C70.6009 27.3813 70.6329 27.2293 70.6329 27.048C70.6329 26.8613 70.6063 26.7067 70.5529 26.584C70.4996 26.4613 70.4276 26.3653 70.3369 26.296C70.2463 26.2213 70.1423 26.1707 70.0249 26.144C69.9076 26.1173 69.7823 26.104 69.6489 26.104H68.1689V27.992ZM72.7049 25.288H73.7049V30.136H76.6089V31H72.7049V25.288ZM77.4986 25.288H78.4986V31H77.4986V25.288ZM81.4532 25.288H82.5172L84.7172 31H83.6452L83.1092 29.488H80.8292L80.2932 31H79.2612L81.4532 25.288ZM81.1012 28.728H82.8452L81.9892 26.272H81.9652L81.1012 28.728ZM85.4211 25.288H86.4771L89.0851 29.496H89.1011V25.288H90.0531V31H88.9971L86.3971 26.8H86.3731V31H85.4211V25.288ZM90.8906 25.288H95.5146V26.152H93.6986V31H92.6986V26.152H90.8906V25.288Z" fill="#2B3945"/>
</svg>
