<svg width="66" height="65" viewBox="0 0 66 65" fill="none" xmlns="http://www.w3.org/2000/svg">
<g clip-path="url(#clip0)">
<path d="M60.8279 33.3604C60.8279 48.6523 48.4311 61.0488 33.1392 61.0488C17.8472 61.0488 5.45068 48.6523 5.45068 33.3604C5.45068 18.0684 17.8472 5.67162 33.1392 5.67162C48.4311 5.67162 60.8279 18.0684 60.8279 33.3604Z" fill="white"/>
<path d="M45.8735 49.5568H20.4036C15.2105 45.6702 11.8437 39.4706 11.8437 32.5C11.8437 20.758 21.3967 11.205 33.1387 11.205C44.8807 11.205 54.4332 20.758 54.4332 32.5C54.4332 39.4706 51.0668 45.6702 45.8735 49.5568ZM33.1387 0C15.2181 0 0.638672 14.5796 0.638672 32.5C0.638672 50.4204 15.2181 65 33.1387 65C51.0598 65 65.6387 50.4204 65.6387 32.5C65.6387 14.5796 51.0598 0 33.1387 0Z" fill="#41B9B6"/>
<path d="M23.6026 32.9508C23.6026 32.6059 23.8843 32.3555 24.1979 32.3555H27.6437C27.9573 32.3555 28.2388 32.6059 28.2388 32.9508V36.6747C28.2388 36.9881 27.9573 37.2695 27.6437 37.2695H24.1979C23.8843 37.2695 23.6026 36.9881 23.6026 36.6747V32.9508ZM23.4143 27.1841C23.4143 25.8055 24.5111 24.6776 25.8894 24.6776C27.2678 24.6776 28.3958 25.8055 28.3958 27.1841C28.3958 28.5624 27.2678 29.6589 25.8894 29.6589C24.5111 29.6589 23.4143 28.5624 23.4143 27.1841Z" fill="#41B9B6"/>
<path d="M30.8363 25.3745C30.8363 25.0299 31.1182 24.7795 31.4316 24.7795H34.8774C35.1908 24.7795 35.4726 25.0299 35.4726 25.3745V36.6747C35.4726 36.9881 35.1908 37.2695 34.8774 37.2695H31.4316C31.1182 37.2695 30.8363 36.9881 30.8363 36.6747V25.3745ZM30.6482 19.6075C30.6482 18.2294 31.7449 17.1014 33.1233 17.1014C34.5017 17.1014 35.6292 18.2294 35.6292 19.6075C35.6292 20.9864 34.5017 22.0822 33.1233 22.0822C31.7449 22.0822 30.6482 20.9864 30.6482 19.6075Z" fill="#41B9B6"/>
<path d="M38.0704 28.6156C38.0704 28.2711 38.3528 28.0205 38.6652 28.0205H42.1113C42.4252 28.0205 42.7068 28.2711 42.7068 28.6156V36.6747C42.7068 36.9881 42.4252 37.2695 42.1113 37.2695H38.6652C38.3528 37.2695 38.0704 36.9881 38.0704 36.6747V28.6156ZM37.8823 22.8491C37.8823 21.4702 38.9786 20.3425 40.3574 20.3425C41.7359 20.3425 42.8636 21.4702 42.8636 22.8491C42.8636 24.2272 41.7359 25.3237 40.3574 25.3237C38.9786 25.3237 37.8823 24.2272 37.8823 22.8491Z" fill="#41B9B6"/>
<path d="M11.6859 48.5755C10.8971 49.1068 9.97063 48.8797 9.46231 48.1257C9.11672 47.6132 9.16397 47.1136 9.34362 46.7198L9.79808 46.965C9.66664 47.2316 9.67723 47.5862 9.86037 47.8577C10.201 48.3624 10.8363 48.4803 11.376 48.1163C11.9076 47.7578 12.0456 47.1195 11.7049 46.614C11.5218 46.3425 11.1934 46.2019 10.9002 46.2214L10.8339 45.7101C11.2714 45.699 11.7571 45.8328 12.1029 46.346C12.611 47.1002 12.4702 48.0469 11.6859 48.5755Z" fill="white"/>
<path d="M10.124 42.9012L8.91551 43.496L9.62251 44.9325L10.8309 44.3377L11.0688 44.822L8.30854 46.1804L8.07033 45.6961L9.19628 45.1425L8.48952 43.706L7.36364 44.2601L7.12524 43.776L9.88582 42.4176L10.124 42.9012Z" fill="white"/>
<path d="M9.59454 41.6114L6.71294 42.6909L6.52344 42.1861L9.40478 41.1059L9.59454 41.6114Z" fill="white"/>
<path d="M9.119 40.3195L6.16054 41.1677L6.01172 40.6486L8.51341 39.9316L8.13888 38.6275L8.59593 38.4963L9.119 40.3195Z" fill="white"/>
<path d="M6.56009 35.9312C5.97705 36.0257 5.5715 36.4656 5.68082 37.1396L5.77839 37.7407L7.87876 37.3998L7.78192 36.8034C7.67467 36.1427 7.13866 35.8371 6.56009 35.9312ZM8.43451 37.8574L5.39542 38.3503L5.21204 37.2202C5.05782 36.2685 5.58302 35.5284 6.47146 35.3841C7.36881 35.2381 8.09645 35.7748 8.25047 36.7228L8.43451 37.8574Z" fill="white"/>
<path d="M5.77462 32.705C5.47934 32.7144 5.29737 32.942 5.30678 33.2464L5.33029 33.9886L6.3083 33.9583L6.28479 33.2154C6.27515 32.9107 6.07414 32.6958 5.77462 32.705ZM7.8926 32.6893L6.76581 33.4035L6.78296 33.943L7.93094 33.9063L7.94809 34.4459L4.87255 34.5435L4.82953 33.1924C4.81072 32.5835 5.1897 32.1697 5.76169 32.1518C6.30595 32.1347 6.61698 32.4849 6.68871 32.8569L7.87286 32.0618L7.8926 32.6893Z" fill="white"/>
<path d="M7.90456 31.3601L4.83862 31.1022L5.01542 29.0016L5.4889 29.0413L5.35724 30.6041L6.14789 30.6706L6.27672 29.1404L6.75021 29.1801L6.62137 30.7106L7.47617 30.7825L7.60809 29.22L8.08109 29.2595L7.90456 31.3601Z" fill="white"/>
<path d="M8.62028 26.4337L6.13436 27.5455L8.28601 28.0035L8.17359 28.5315L5.16528 27.8906L5.28048 27.3492L7.69186 26.2548L5.60821 25.8112L5.72035 25.2834L8.72867 25.9243L8.62028 26.4337Z" fill="white"/>
<path d="M7.21529 24.3803L6.98141 24.5386C6.94211 24.3711 6.80904 24.1645 6.66778 24.0909C6.66917 24.1008 6.66261 24.1375 6.65296 24.1683C6.60688 24.3135 6.45619 24.3916 6.29349 24.3404C6.13081 24.2884 6.0363 24.1132 6.08919 23.9466C6.14656 23.7658 6.34192 23.6534 6.59654 23.7343C6.90052 23.83 7.12032 24.0836 7.21529 24.3803Z" fill="white"/>
<path d="M8.93078 23.8445L8.65928 23.4025C8.94751 23.297 9.2642 23.0633 9.42803 22.6667C9.59757 22.2571 9.46233 22.0166 9.27076 21.9372C8.67361 21.6903 8.35974 23.4982 7.31475 23.0656C6.84175 22.8695 6.64847 22.3105 6.90801 21.6835C7.09001 21.2445 7.38504 20.9417 7.74826 20.7877L8.00308 21.2225C7.68338 21.3553 7.45582 21.6158 7.33214 21.9139C7.21225 22.204 7.27948 22.4518 7.48826 22.538C8.02144 22.7588 8.3781 20.9683 9.43531 21.4063C9.90879 21.6022 10.179 22.1083 9.86299 22.8716C9.64548 23.3962 9.30086 23.6981 8.93078 23.8445Z" fill="white"/>
<path d="M11.5702 16.6076C11.0445 16.2491 10.4255 16.3131 10.0773 16.8237C9.72607 17.3383 9.89513 17.9341 10.4215 18.2926C10.9437 18.6488 11.5636 18.5914 11.9146 18.0768C12.2631 17.5659 12.0929 16.9638 11.5702 16.6076ZM10.1097 18.7501C9.35087 18.2324 9.16093 17.3155 9.68093 16.5533C10.1984 15.7947 11.124 15.6332 11.8826 16.1502C12.6411 16.6678 12.8282 17.5887 12.3108 18.3472C11.7912 19.1098 10.868 19.2673 10.1097 18.7501Z" fill="white"/>
<path d="M15.0351 14.9062L12.3256 14.6076L13.9522 16.0922L13.5878 16.4912L11.3137 14.4151L11.6873 14.0057L14.3239 14.2813L12.7488 12.8434L13.113 12.4447L15.3868 14.5209L15.0351 14.9062Z" fill="white"/>
<path d="M15.9833 13.978L13.9744 11.6471L14.383 11.2946L16.0823 13.2662L17.1099 12.3803L17.42 12.7403L15.9833 13.978Z" fill="white"/>
<path d="M17.9763 12.333L16.155 9.8541L16.5897 9.5344L18.411 12.0132L17.9763 12.333Z" fill="white"/>
<path d="M20.9404 10.4006L18.4347 9.32879L19.5598 11.2213L19.0958 11.4976L17.5225 8.85104L17.9986 8.56774L20.4414 9.59679L19.3515 7.76397L19.8159 7.48772L21.3889 10.1342L20.9404 10.4006Z" fill="white"/>
<path d="M22.1388 9.77222L20.9111 6.95104L22.8439 6.11031L23.0336 6.54599L21.5955 7.1718L21.9122 7.8992L23.3202 7.28585L23.5099 7.72171L22.1017 8.33458L22.444 9.12126L23.8818 8.49539L24.0716 8.93107L22.1388 9.77222Z" fill="white"/>
<path d="M27.8595 5.66986C27.7956 5.38139 27.5417 5.23942 27.2443 5.30544L26.519 5.46626L26.7299 6.41724L27.4553 6.25619C27.7528 6.19016 27.9227 5.95364 27.8595 5.66986ZM26.5561 8.12476L25.8884 5.11947L27.2132 4.82541C27.8442 4.68542 28.286 5.03605 28.4003 5.54973C28.5131 6.0592 28.2568 6.56512 27.6303 6.70409L26.833 6.88133L27.0835 8.0077L26.5561 8.12476Z" fill="white"/>
<path d="M31.0761 5.23735C31.0474 4.94346 30.8083 4.77693 30.505 4.80642L29.7664 4.87972L29.8623 5.85304L30.6012 5.78015C30.9042 5.7503 31.106 5.53568 31.0761 5.23735ZM31.2336 7.34942L30.446 6.27313L29.9088 6.32561L30.0214 7.46931L29.4844 7.52197L29.1824 4.45975L30.5273 4.32674C31.1337 4.26716 31.5717 4.61864 31.6279 5.18745C31.681 5.72936 31.3523 6.06321 30.9865 6.15938L31.8578 7.28809L31.2336 7.34942Z" fill="white"/>
<path d="M32.5859 7.29395L32.5354 4.21782L33.0749 4.2094L33.125 7.28528L32.5859 7.29395Z" fill="white"/>
<path d="M34.876 7.34636L33.9238 4.18231L34.5351 4.23226L35.2604 6.78544L36.3919 4.38453L37.0031 4.43448L35.5472 7.40161L34.876 7.34636Z" fill="white"/>
<path d="M38.7448 5.32199L37.9062 6.64792L38.9909 6.87151L38.7448 5.32199ZM39.1461 7.99619L39.0445 7.3678L37.6615 7.08307L37.3201 7.62052L36.7183 7.49708L38.5238 4.72519L39.1837 4.86097L39.7475 8.12012L39.1461 7.99619Z" fill="white"/>
<path d="M40.4508 6.73565C40.7571 5.83642 41.6322 5.4572 42.4922 5.7506C43.0771 5.94969 43.3409 6.37617 43.4356 6.79818L42.9266 6.87811C42.87 6.58591 42.6473 6.31014 42.3377 6.20458C41.761 6.00826 41.1846 6.29859 40.9746 6.9141C40.7677 7.52089 41.0435 8.11215 41.62 8.30847C41.9296 8.41428 42.2759 8.32749 42.4973 8.13496L42.8597 8.50221C42.518 8.77539 42.0502 8.96202 41.4655 8.76245C40.6051 8.46929 40.1459 7.63018 40.4508 6.73565Z" fill="white"/>
<path d="M43.9155 9.71196L44.4755 8.56278L44.1894 6.42152L44.7447 6.69211L44.9281 8.24422L46.2634 7.43196L46.8195 7.70304L44.9605 8.79955L44.4007 9.94849L43.9155 9.71196Z" fill="white"/>
<path d="M50.1966 11.1615C50.3753 10.9265 50.3195 10.6408 50.0767 10.4569L49.4849 10.0072L48.8964 10.7828L49.4882 11.2326C49.7306 11.4166 50.0207 11.3936 50.1966 11.1615ZM47.4807 11.7545L49.3427 9.30236L50.423 10.1226C50.9376 10.5136 50.9559 11.0778 50.6374 11.4968C50.3224 11.912 49.7706 12.0434 49.2592 11.656L48.6092 11.1615L47.9114 12.0806L47.4807 11.7545Z" fill="white"/>
<path d="M52.6053 13.3362C52.811 13.1243 52.7828 12.8345 52.5648 12.6226L52.0312 12.1063L51.351 12.8086L51.8842 13.3253C52.1029 13.5372 52.3967 13.552 52.6053 13.3362ZM51.0967 14.8222L51.4082 13.5254L51.0202 13.15L50.2216 13.9752L49.8337 13.6L51.9736 11.3895L52.9445 12.3297C53.3818 12.7529 53.3975 13.3138 53.0005 13.7248C52.6213 14.1158 52.1539 14.0812 51.8443 13.8642L51.5468 15.2588L51.0967 14.8222Z" fill="white"/>
<path d="M54.7502 16.739C55.2498 16.3442 55.3736 15.7346 54.9904 15.2494C54.6044 14.7606 53.9856 14.744 53.4853 15.1384C52.9893 15.5306 52.8595 16.1395 53.2456 16.6285C53.6288 17.1135 54.2541 17.1307 54.7502 16.739ZM53.1421 14.7042C53.8627 14.135 54.7948 14.2274 55.3666 14.9518C55.937 15.6721 55.8147 16.604 55.0941 17.1735C54.3733 17.7429 53.4383 17.6464 52.8687 16.9258C52.2965 16.2018 52.422 15.2733 53.1421 14.7042Z" fill="white"/>
<path d="M54.572 19.2619L56.8015 17.9174L56.3202 17.1189L56.7274 16.8733L57.9688 18.9325L57.5615 19.1782L57.0801 18.3798L54.8513 19.7244L54.572 19.2619Z" fill="white"/>
<path d="M55.6216 21.0903L58.4185 19.809L59.2966 21.7256L58.8647 21.9237L58.2112 20.4974L57.4901 20.8279L58.13 22.2249L57.6975 22.4224L57.058 21.0259L56.2782 21.3832L56.9311 22.8091L56.4992 23.0071L55.6216 21.0903Z" fill="white"/>
<path d="M58.1996 23.104C59.1066 22.8167 59.9313 23.2968 60.2057 24.1633C60.3918 24.7527 60.2057 25.2187 59.9219 25.5457L59.5551 25.1825C59.7566 24.9638 59.8467 24.6206 59.7477 24.3082C59.5639 23.7272 58.9871 23.4355 58.3672 23.632C57.7555 23.8252 57.4432 24.3985 57.6273 24.9794C57.7258 25.292 58.0012 25.5196 58.2877 25.5836L58.2073 26.0935C57.7841 25.9804 57.3555 25.7138 57.1693 25.1242C56.895 24.2576 57.2982 23.3891 58.1996 23.104Z" fill="white"/>
<path d="M57.8489 27.6072L60.4072 27.1335L60.2375 26.2171L60.7049 26.1308L61.1419 28.4938L60.6752 28.5806L60.5055 27.6641L57.9469 28.1378L57.8489 27.6072Z" fill="white"/>
<path d="M58.1726 29.7235L61.2351 29.4217L61.2881 29.9588L58.2255 30.2607L58.1726 29.7235Z" fill="white"/>
<path d="M59.8406 33.5767C60.4772 33.5873 60.9588 33.1935 60.9691 32.5759C60.9793 31.9531 60.5109 31.549 59.8742 31.5384C59.2425 31.5281 58.7563 31.9169 58.7464 32.5392C58.7364 33.1571 59.2089 33.5661 59.8406 33.5767ZM59.8836 30.985C60.801 30.9998 61.4638 31.6611 61.4487 32.5834C61.4337 33.5015 60.7495 34.1449 59.8319 34.1304C58.9143 34.1151 58.2516 33.4491 58.2669 32.5317C58.2814 31.6092 58.9656 30.9699 59.8836 30.985Z" fill="white"/>
<path d="M57.9471 36.9281L60.3545 35.6534L58.1766 35.3388L58.2541 34.8045L61.2991 35.2444L61.2202 35.7919L58.8866 37.0445L60.9958 37.3489L60.9187 37.8831L57.8733 37.4437L57.9471 36.9281Z" fill="white"/>
<path d="M59.1594 42.0833L57.9738 41.0571L57.5913 42.096L59.1594 42.0833ZM56.4558 42.0814L57.0929 42.0751L57.5802 40.7496L57.0999 40.3319L57.3115 39.7563L59.7824 41.9538L59.5496 42.5865L56.2441 42.6575L56.4558 42.0814Z" fill="white"/>
<path d="M57.5108 43.5615C58.3551 43.9983 58.6001 44.9203 58.1822 45.7279C57.8978 46.2769 57.4363 46.4748 57.0049 46.5061L57.0018 45.9896C57.2995 45.9778 57.6051 45.7984 57.756 45.5074C58.0358 44.9662 57.8341 44.3521 57.2565 44.0536C56.6871 43.7578 56.0605 43.9435 55.7805 44.4842C55.6296 44.7751 55.6637 45.1308 55.8219 45.3788L55.4039 45.682C55.1848 45.3035 55.0696 44.8127 55.3545 44.2637C55.7723 43.4562 56.6703 43.1265 57.5108 43.5615Z" fill="white"/>
<path d="M54.0838 46.499L56.2309 47.9679L56.7568 47.1991L57.149 47.4676L55.7918 49.4507L55.3996 49.1826L55.9262 48.4132L53.7793 46.9445L54.0838 46.499Z" fill="white"/>
<path d="M21.5222 44.3926V41.8448H22.0759V44.3926H21.5222ZM21.4587 41.1905C21.4587 41.0005 21.6116 40.8473 21.8017 40.8473C21.9914 40.8473 22.1445 41.0005 22.1445 41.1905C22.1445 41.3805 21.9914 41.5333 21.8017 41.5333C21.6116 41.5333 21.4587 41.3805 21.4587 41.1905Z" fill="#41B9B6"/>
<path d="M24.9132 44.3926L23.737 42.9051L23.4257 43.2688V44.3926H22.8086V40.8739H23.4257V42.5459L24.8027 40.8739H25.5677L24.1381 42.5298L25.6787 44.3926H24.9132Z" fill="#41B9B6"/>
<path d="M27.0438 42.2346C26.574 42.2346 26.3528 42.5986 26.3317 42.9049H27.7662C27.7505 42.604 27.5447 42.2346 27.0438 42.2346ZM25.7561 43.1153C25.7561 42.3768 26.2945 41.7809 27.0489 41.7809C27.814 41.7809 28.2989 42.3611 28.2989 43.1635V43.3003H26.3366C26.3791 43.68 26.6638 44.0021 27.1439 44.0021C27.3971 44.0021 27.687 43.9014 27.8717 43.7172L28.125 44.0809C27.8666 44.3235 27.4921 44.4558 27.091 44.4558C26.3208 44.4558 25.7561 43.9229 25.7561 43.1153Z" fill="#41B9B6"/>
<path d="M29.9807 42.2346C29.5113 42.2346 29.2896 42.5986 29.2684 42.9049H30.7032C30.6877 42.604 30.482 42.2346 29.9807 42.2346ZM28.6934 43.1153C28.6934 42.3768 29.2315 41.7809 29.9857 41.7809C30.7507 41.7809 31.2362 42.3611 31.2362 43.1635V43.3003H29.2738C29.3161 43.68 29.6008 44.0021 30.0807 44.0021C30.3341 44.0021 30.6242 43.9014 30.8085 43.7172L31.0619 44.0809C30.8036 44.3235 30.4291 44.4558 30.0283 44.4558C29.2578 44.4558 28.6934 43.9229 28.6934 43.1153Z" fill="#41B9B6"/>
<path d="M33.7144 43.1155C33.7144 42.6199 33.4292 42.2719 32.9914 42.2719C32.7328 42.2719 32.4638 42.4193 32.3372 42.6093V43.6174C32.4584 43.8071 32.7328 43.9651 32.9914 43.9651C33.4292 43.9651 33.7144 43.6113 33.7144 43.1155ZM32.3372 44.0387V45.363H31.7834V41.8448H32.3372V42.1927C32.5273 41.9393 32.8226 41.7811 33.1548 41.7811C33.8143 41.7811 34.2837 42.2766 34.2837 43.1155C34.2837 43.9545 33.8143 44.456 33.1548 44.456C32.8332 44.456 32.5483 44.3079 32.3372 44.0387Z" fill="#41B9B6"/>
<path d="M34.625 43.8963L34.9732 43.4162C35.2111 43.6748 35.596 43.9069 36.0864 43.9069C36.5931 43.9069 36.7882 43.6588 36.7882 43.4214C36.7882 42.6832 34.7416 43.1416 34.7416 41.8498C34.7416 41.2636 35.2476 40.8153 36.0234 40.8153C36.5665 40.8153 37.0148 40.9947 37.3364 41.3114L36.9885 41.7703C36.7087 41.4908 36.3344 41.3643 35.9653 41.3643C35.6068 41.3643 35.3745 41.5437 35.3745 41.8022C35.3745 42.4618 37.421 42.0555 37.421 43.3638C37.421 43.9492 37.0044 44.4558 36.0598 44.4558C35.411 44.4558 34.9419 44.2231 34.625 43.8963Z" fill="#41B9B6"/>
<path d="M39.5297 43.8116V43.4214C39.3981 43.2474 39.1606 43.1581 38.9231 43.1581C38.6117 43.1581 38.3742 43.3426 38.3742 43.6172C38.3742 43.8963 38.6117 44.0754 38.9231 44.0754C39.1606 44.0754 39.3981 43.9864 39.5297 43.8116ZM39.5297 44.3924V44.1126C39.3397 44.3343 39.0388 44.4558 38.7017 44.4558C38.2903 44.4558 37.8206 44.1707 37.8206 43.6111C37.8206 43.0206 38.2849 42.7777 38.7017 42.7777C39.0497 42.7777 39.3397 42.8889 39.5297 43.1052V42.7255C39.5297 42.4297 39.2817 42.2506 38.933 42.2506C38.6488 42.2506 38.3954 42.3559 38.1791 42.5774L37.9471 42.1925C38.2426 41.9074 38.6117 41.7809 39.0184 41.7809C39.5878 41.7809 40.0834 42.0183 40.0834 42.6992V44.3924H39.5297Z" fill="#41B9B6"/>
<path d="M40.9371 44.3926V42.3249H40.5151V41.8448H40.9371V41.7019C40.9371 41.1482 41.2592 40.8214 41.7388 40.8214C41.9716 40.8214 42.198 40.879 42.3512 41.0424L42.135 41.3857C42.0609 41.3168 41.9657 41.2744 41.8446 41.2744C41.6231 41.2744 41.4912 41.4174 41.4912 41.7019V41.8448H42.008V42.3249H41.4912V44.3926H40.9371Z" fill="#41B9B6"/>
<path d="M43.5631 42.2346C43.094 42.2346 42.8726 42.5986 42.8514 42.9049H44.286C44.2707 42.604 44.0643 42.2346 43.5631 42.2346ZM42.2764 43.1153C42.2764 42.3768 42.8143 41.7809 43.569 41.7809C44.3337 41.7809 44.819 42.3611 44.819 43.1635V43.3003H42.8566C42.8989 43.68 43.1834 44.0021 43.6635 44.0021C43.9169 44.0021 44.2072 43.9014 44.3918 43.7172L44.6445 44.0809C44.3866 44.3235 44.0114 44.4558 43.6113 44.4558C42.8406 44.4558 42.2764 43.9229 42.2764 43.1153Z" fill="#41B9B6"/>
<path d="M20.3999 55.7042C20.3999 54.2105 21.531 53.2027 23.0172 53.2027C24.185 53.2027 24.816 53.8621 25.1277 54.4934L24.0545 55.0082C23.8951 54.6239 23.4813 54.3049 23.0172 54.3049C22.2268 54.3049 21.6687 54.9067 21.6687 55.7042C21.6687 56.4948 22.2268 57.1042 23.0172 57.1042C23.4813 57.1042 23.8951 56.7844 24.0545 56.4005L25.1277 56.9079C24.816 57.5243 24.185 58.2061 23.0172 58.2061C21.531 58.2061 20.3999 57.1904 20.3999 55.7042Z" fill="white"/>
<path d="M29.6078 55.7042C29.6078 54.9135 29.0931 54.3049 28.2954 54.3049C27.4977 54.3049 26.9759 54.9135 26.9759 55.7042C26.9759 56.487 27.4977 57.1042 28.2954 57.1042C29.0931 57.1042 29.6078 56.487 29.6078 55.7042ZM25.7068 55.7042C25.7068 54.2325 26.8159 53.2027 28.2954 53.2027C29.7746 53.2027 30.8768 54.2325 30.8768 55.7042C30.8768 57.1766 29.7746 58.2061 28.2954 58.2061C26.8159 58.2061 25.7068 57.1766 25.7068 55.7042Z" fill="white"/>
<path d="M34.6322 54.8926C34.6322 54.5588 34.3641 54.37 34.0303 54.37H33.0443V55.4068H34.0303C34.3641 55.4068 34.6322 55.2183 34.6322 54.8926ZM31.7969 58.1194V53.2827H34.2191C35.3069 53.2827 35.9012 54.0146 35.9012 54.8926C35.9012 55.7625 35.3069 56.4949 34.2191 56.4949H33.0443V58.1194H31.7969Z" fill="white"/>
<path d="M39.5839 54.8926C39.5839 54.5588 39.3159 54.37 38.982 54.37H37.9965V55.4068H38.982C39.3159 55.4068 39.5839 55.2183 39.5839 54.8926ZM36.749 58.1194V53.2827H39.1708C40.2586 53.2827 40.8534 54.0146 40.8534 54.8926C40.8534 55.7625 40.2586 56.4949 39.1708 56.4949H37.9965V58.1194H36.749Z" fill="white"/>
<path d="M43.2753 54.5151L42.6582 56.3347H43.8842L43.2753 54.5151ZM44.4645 58.1194L44.2244 57.4228H42.318L42.0787 58.1194H40.6646L42.4847 53.2827H44.0582L45.8778 58.1194H44.4645Z" fill="white"/>
</g>
<defs>
<clipPath id="clip0">
<rect width="65" height="65" fill="white" transform="translate(0.638916)"/>
</clipPath>
</defs>
</svg>
