<svg width="66" height="65" viewBox="0 0 66 65" fill="none" xmlns="http://www.w3.org/2000/svg">
<g clip-path="url(#clip0)">
<path d="M60.5223 33.3604C60.5223 48.6523 48.1255 61.0488 32.8335 61.0488C17.5415 61.0488 5.14502 48.6523 5.14502 33.3604C5.14502 18.0684 17.5415 5.67162 32.8335 5.67162C48.1255 5.67162 60.5223 18.0684 60.5223 33.3604Z" fill="white"/>
<path d="M45.5683 49.5568H20.0984C14.9054 45.6702 11.5385 39.4706 11.5385 32.5C11.5385 20.758 21.0915 11.205 32.8335 11.205C44.5755 11.205 54.128 20.758 54.128 32.5C54.128 39.4706 50.7616 45.6702 45.5683 49.5568ZM32.8335 0C14.9131 0 0.333496 14.5796 0.333496 32.5C0.333496 50.4204 14.9131 65 32.8335 65C50.7546 65 65.3335 50.4204 65.3335 32.5C65.3335 14.5796 50.7546 0 32.8335 0Z" fill="#50B7EB"/>
<path d="M23.2967 32.9508C23.2967 32.6059 23.5784 32.3555 23.892 32.3555H27.3378C27.6514 32.3555 27.9328 32.6059 27.9328 32.9508V36.6747C27.9328 36.9881 27.6514 37.2695 27.3378 37.2695H23.892C23.5784 37.2695 23.2967 36.9881 23.2967 36.6747V32.9508ZM23.1084 27.1841C23.1084 25.8055 24.2052 24.6776 25.5835 24.6776C26.9619 24.6776 28.0899 25.8055 28.0899 27.1841C28.0899 28.5624 26.9619 29.6589 25.5835 29.6589C24.2052 29.6589 23.1084 28.5624 23.1084 27.1841Z" fill="#50B7EB"/>
<path d="M30.5311 25.3745C30.5311 25.0299 30.8128 24.7795 31.1261 24.7795H34.572C34.8854 24.7795 35.1672 25.0299 35.1672 25.3745V36.6747C35.1672 36.9881 34.8854 37.2695 34.572 37.2695H31.1261C30.8128 37.2695 30.5311 36.9881 30.5311 36.6747V25.3745ZM30.3428 19.6075C30.3428 18.2294 31.4395 17.1014 32.8179 17.1014C34.1963 17.1014 35.3238 18.2294 35.3238 19.6075C35.3238 20.9864 34.1963 22.0822 32.8179 22.0822C31.4395 22.0822 30.3428 20.9864 30.3428 19.6075Z" fill="#50B7EB"/>
<path d="M37.765 28.6156C37.765 28.2711 38.0474 28.0205 38.3605 28.0205H41.8059C42.1197 28.0205 42.4014 28.2711 42.4014 28.6156V36.6747C42.4014 36.9881 42.1197 37.2695 41.8059 37.2695H38.3605C38.0474 37.2695 37.765 36.9881 37.765 36.6747V28.6156ZM37.5769 22.8491C37.5769 21.4702 38.6732 20.3425 40.052 20.3425C41.4304 20.3425 42.5582 21.4702 42.5582 22.8491C42.5582 24.2272 41.4304 25.3237 40.052 25.3237C38.6732 25.3237 37.5769 24.2272 37.5769 22.8491Z" fill="#50B7EB"/>
<path d="M12.4328 47.3551L9.88054 49.0725L8.70386 47.3236L9.09789 47.0585L9.9734 48.3597L10.6316 47.9165L9.77401 46.6423L10.168 46.3771L11.0257 47.6514L12.1316 46.9075L12.4328 47.3551Z" fill="white"/>
<path d="M8.13875 45.18L9.69718 45.0005L9.19006 44.0157L8.13875 45.18ZM9.96898 43.1891L9.54317 43.6624L10.1895 44.9185L10.8223 44.8466L11.1033 45.3927L7.81284 45.7261L7.50439 45.1271L9.68803 42.6432L9.96898 43.1891Z" fill="white"/>
<path d="M8.60289 39.5835L6.35232 40.3447L8.9043 40.4752L8.97838 40.6932L7.03079 42.3506L9.28142 41.5889L9.45445 42.1002L6.53944 43.0864L6.29589 42.3659L8.02812 40.893L5.75916 40.7794L5.51514 40.0577L8.4301 39.0721L8.60289 39.5835Z" fill="white"/>
<path d="M8.25173 38.1519L5.24314 38.8059L5.12842 38.2784L8.13696 37.6241L8.25173 38.1519Z" fill="white"/>
<path d="M7.9529 36.7178L4.90083 37.1238L4.82959 36.5885L7.41051 36.2453L7.23134 34.8997L7.70271 34.837L7.9529 36.7178Z" fill="white"/>
<path d="M7.64718 33.7703L6.36987 33.8202L4.61838 35.0854L4.59393 34.4673L5.87498 33.5717L4.52786 32.7794L4.50342 32.1615L6.3487 33.2806L7.62599 33.2308L7.64718 33.7703Z" fill="white"/>
<path d="M7.76642 29.5645L4.72754 29.0879L5.05409 27.0059L5.52335 27.0795L5.28026 28.6283L6.06407 28.7515L6.30176 27.2341L6.77126 27.3077L6.53335 28.8246L7.38064 28.9579L7.62372 27.4083L8.09275 27.4819L7.76642 29.5645Z" fill="white"/>
<path d="M7.39872 24.1226C6.83166 23.9566 6.27587 24.1786 6.08379 24.834L5.9124 25.419L7.95496 26.0173L8.12516 25.4368C8.31324 24.7948 7.96128 24.2877 7.39872 24.1226ZM8.25937 26.6694L5.30444 25.8038L5.62629 24.7052C5.89759 23.7792 6.69035 23.3381 7.5543 23.5911C8.42699 23.8464 8.85232 24.6446 8.58263 25.5661L8.25937 26.6694Z" fill="white"/>
<path d="M8.20377 22.7903L6.51172 22.0201L6.73934 21.5208L8.41863 22.2851C8.86363 22.4873 9.26615 22.3716 9.47843 21.9054C9.69028 21.4396 9.51369 21.0598 9.06844 20.8574L7.38868 20.0928L7.61624 19.5932L9.30822 20.3632C10.0013 20.6789 10.2855 21.2894 9.91501 22.1041C9.54614 22.9147 8.8968 23.1056 8.20377 22.7903Z" fill="white"/>
<path d="M9.48594 19.3586C8.68307 18.8501 8.51925 17.9106 9.00567 17.1428C9.33644 16.6206 9.81275 16.4636 10.2455 16.4699L10.2037 16.9841C9.90658 16.9707 9.58609 17.1228 9.41071 17.3995C9.08487 17.9139 9.23275 18.543 9.78218 18.8912C10.3238 19.234 10.9633 19.1042 11.2894 18.5896C11.4645 18.3131 11.4615 17.9558 11.3263 17.6955L11.7678 17.4291C11.9535 17.8255 12.0255 18.3244 11.6947 18.8466C11.2083 19.6143 10.2848 19.8648 9.48594 19.3586Z" fill="white"/>
<path d="M11.5651 14.6693L12.3332 16.0372L13.0453 15.1884L11.5651 14.6693ZM14.1089 15.5869L13.5072 15.3775L12.5995 16.4594L12.9101 17.0152L12.5153 17.4854L10.9348 14.5803L11.3678 14.0644L14.5034 15.1168L14.1089 15.5869Z" fill="white"/>
<path d="M15.2729 14.4038L13.4805 12.5176L12.8051 13.1597L12.4775 12.8153L14.2199 11.1597L14.5469 11.5042L13.8717 12.146L15.6641 14.0319L15.2729 14.4038Z" fill="white"/>
<path d="M16.9408 12.9219L15.0251 10.5135L15.4479 10.1774L17.363 12.5859L16.9408 12.9219Z" fill="white"/>
<path d="M19.3408 9.37429C18.9988 8.83707 18.4049 8.65182 17.8832 8.98423C17.3578 9.31904 17.2783 9.93287 17.6203 10.4701C17.9601 11.0035 18.5525 11.1949 19.078 10.8601C19.5997 10.5279 19.6805 9.90747 19.3408 9.37429ZM17.1535 10.7675C16.66 9.99305 16.8469 9.07499 17.6251 8.57942C18.3997 8.08596 19.3147 8.30221 19.8077 9.07685C20.3012 9.85131 20.1105 10.7717 19.3361 11.2649C18.5572 11.7607 17.6465 11.5421 17.1535 10.7675Z" fill="white"/>
<path d="M23.2804 9.1441L20.9163 7.79252L21.8158 9.80024L21.3232 10.021L20.0654 7.21366L20.5707 6.9873L22.8772 8.28904L22.006 6.34428L22.4985 6.12352L23.7563 8.9311L23.2804 9.1441Z" fill="white"/>
<path d="M25.1014 5.84266L24.9777 7.40561L26.0411 7.09789L25.1014 5.84266ZM26.7019 8.02041L26.3195 7.51166L24.9636 7.90401L24.9119 8.53854L24.3228 8.70898L24.6281 5.41788L25.2751 5.23094L27.2911 7.84972L26.7019 8.02041Z" fill="white"/>
<path d="M27.8603 7.76196L27.364 4.72688L27.8965 4.63962L28.3161 7.20615L29.6544 6.98732L29.731 7.45634L27.8603 7.76196Z" fill="white"/>
<path d="M34.2068 5.19696C34.2145 4.90164 33.9978 4.70718 33.6931 4.69935L32.9509 4.6807L32.9262 5.65822L33.6691 5.677C33.9731 5.68476 34.1992 5.49645 34.2068 5.19696ZM34.1035 7.31187L33.454 6.14699L32.9145 6.13356L32.8855 7.28154L32.3464 7.26818L32.4234 4.19259L33.7745 4.2263C34.3833 4.24134 34.7748 4.64338 34.76 5.21502C34.7463 5.75951 34.3791 6.05009 34.0041 6.10064L34.7306 7.32788L34.1035 7.31187Z" fill="white"/>
<path d="M35.5447 7.43137L35.9032 4.37559L36.439 4.43878L36.0804 7.49414L35.5447 7.43137Z" fill="white"/>
<path d="M37.2206 6.07013C37.4305 5.1239 38.2687 4.67149 39.1425 4.86577C39.7286 4.99577 40.0495 5.36013 40.2122 5.75585L39.7291 5.90842C39.6167 5.64721 39.3725 5.40834 39.0386 5.33431C38.4443 5.20196 37.9024 5.55507 37.7613 6.19008C37.6222 6.81661 37.9616 7.37381 38.5567 7.50639C38.8628 7.57434 39.1644 7.4946 39.3282 7.39379L39.4317 6.9297L38.53 6.72958L38.6335 6.26549L40.0571 6.58171L39.8078 7.70386C39.4423 7.96765 38.969 8.0941 38.4513 7.97915C37.5772 7.78517 37.0113 7.01173 37.2206 6.07013Z" fill="white"/>
<path d="M42.4894 9.19044L42.965 7.93076L41.4681 7.36539L40.9921 8.62524L40.4871 8.43439L41.5739 5.55652L42.0787 5.74719L41.6355 6.92055L43.1331 7.48648L43.5762 6.31263L44.0805 6.50353L42.9944 9.38135L42.4894 9.19044Z" fill="white"/>
<path d="M44.4741 10.1317L45.7018 7.83709L44.8804 7.3972L45.1047 6.97801L47.224 8.11286L47.0003 8.53181L46.1781 8.09191L44.9502 10.3865L44.4741 10.1317Z" fill="white"/>
<path d="M46.4597 10.7378L46.9499 10.5674C46.991 10.8719 47.1514 11.231 47.5036 11.4767C47.8668 11.7299 48.1313 11.65 48.25 11.4791C48.6198 10.9494 46.9206 10.2545 47.5675 9.32655C47.8605 8.90639 48.4487 8.83802 49.0051 9.22567C49.3957 9.49771 49.627 9.8513 49.6998 10.2394L49.2202 10.3946C49.1594 10.0539 48.9542 9.77558 48.6889 9.59076C48.4317 9.41116 48.1752 9.42386 48.0462 9.60935C47.7156 10.0824 49.3883 10.8154 48.7336 11.7547C48.4404 12.1747 47.888 12.3297 47.2104 11.8572C46.7442 11.5325 46.5239 11.1307 46.4597 10.7378Z" fill="white"/>
<path d="M52.2273 13.5241C52.5282 13.6382 52.7982 13.7059 52.9844 13.5267C53.1207 13.396 53.1085 13.2229 52.9869 13.096C52.8464 12.9495 52.6183 12.9385 52.4549 13.0948C52.355 13.1905 52.2802 13.3457 52.2273 13.5241ZM51.5775 14.8322C51.5886 14.6037 51.6055 14.389 51.625 14.2621C51.6415 14.086 51.6685 13.8941 51.705 13.7124C51.4679 13.6583 51.2489 13.6633 51.0627 13.8424C50.8198 14.0754 50.8555 14.3928 51.0533 14.599C51.1908 14.7421 51.3751 14.8085 51.5775 14.8322ZM51.5545 15.6012C51.5533 15.5001 51.5526 15.3663 51.5592 15.2199C51.2594 15.1874 50.9721 15.0736 50.7293 14.8207C50.3527 14.4278 50.2584 13.9038 50.678 13.5015C51.0213 13.1726 51.4146 13.23 51.7903 13.3617C51.8679 13.109 51.9764 12.8825 52.1297 12.7358C52.426 12.4518 52.8981 12.4906 53.2301 12.8369C53.5176 13.1365 53.5912 13.5396 53.3012 13.8173C52.9651 14.1398 52.5536 14.004 52.1551 13.8554C52.1222 14.0343 52.1022 14.2068 52.0893 14.3402C52.0698 14.4995 52.054 14.6561 52.044 14.8056C52.3063 14.7591 52.5525 14.6632 52.7211 14.5786L52.8628 14.9857C52.6096 15.0819 52.3173 15.1705 52.0164 15.2095C52.004 15.4768 51.9946 15.754 51.9953 16.0608L51.5545 15.6012Z" fill="white"/>
<path d="M56.2973 18.4786C56.5458 18.3201 56.5928 18.0333 56.4301 17.7763L56.0316 17.1498L55.2107 17.6717L55.6085 18.2987C55.7719 18.5555 56.0516 18.6344 56.2973 18.4786ZM53.5466 18.0899L56.1433 16.4395L56.8705 17.584C57.217 18.1292 57.0379 18.6636 56.5935 18.9457C56.1539 19.2253 55.5915 19.1564 55.2476 18.6154L54.8096 17.9268L53.8365 18.5456L53.5466 18.0899Z" fill="white"/>
<path d="M57.8386 21.4472C58.1054 21.3209 58.1818 21.04 58.0513 20.7649L57.7339 20.0939L56.85 20.5115L57.1673 21.1832C57.2978 21.458 57.5677 21.5753 57.8386 21.4472ZM55.9033 22.3062L56.6513 21.2024L56.4209 20.7146L55.383 21.2052L55.1519 20.7179L57.9326 19.4028L58.5105 20.6243C58.7707 21.1744 58.5881 21.7051 58.0706 21.9491C57.5788 22.1819 57.154 21.9851 56.9405 21.6726L56.1713 22.8728L55.9033 22.3062Z" fill="white"/>
<path d="M56.4414 23.6411L59.3331 22.5911L59.5169 23.0985L56.6257 24.1482L56.4414 23.6411Z" fill="white"/>
<path d="M57.1714 25.904L59.8527 23.968L60.0055 24.5623L57.827 26.0836L60.4686 26.3686L60.6208 26.9631L57.3388 26.5566L57.1714 25.904Z" fill="white"/>
<path d="M60.3593 29.0026L58.8345 28.6374L58.9732 29.7356L60.3593 29.0026ZM57.9594 30.2448L58.5213 29.946L58.3445 28.5458L57.7255 28.3965L57.6484 27.7873L60.8531 28.6008L60.9368 29.2689L58.0366 30.8535L57.9594 30.2448Z" fill="white"/>
<path d="M59.5989 31.1767C60.5487 31.192 61.1782 31.908 61.1626 32.817C61.153 33.4345 60.8286 33.8166 60.4556 34.0364L60.2236 33.5763C60.4841 33.4327 60.6781 33.1359 60.6835 32.8087C60.6937 32.2001 60.2393 31.7404 59.5895 31.7298C58.9489 31.7195 58.4709 32.1638 58.461 32.7721C58.4556 33.0995 58.6441 33.4028 58.8952 33.5545L58.6571 34.0117C58.2922 33.7707 57.9713 33.3821 57.9814 32.7645C57.996 31.8561 58.6531 31.1612 59.5989 31.1767Z" fill="white"/>
<path d="M57.8668 35.4869L59.1346 35.6495L61.0717 34.6939L60.9929 35.3075L59.5813 35.977L60.7774 36.9821L60.6986 37.595L59.0657 36.1851L57.7981 36.0222L57.8668 35.4869Z" fill="white"/>
<path d="M59.0548 41.5916L57.8488 40.5885L57.4865 41.6351L59.0548 41.5916ZM56.3517 41.6429L56.9883 41.6236L57.4496 40.2894L56.9613 39.8813L57.1616 39.3013L59.6748 41.4501L59.4543 42.0865L56.1514 42.2224L56.3517 41.6429Z" fill="white"/>
<path d="M57.3934 43.1912C58.244 43.6159 58.5026 44.534 58.0959 45.3477C57.8196 45.9006 57.3619 46.1056 56.9305 46.1428L56.9197 45.6267C57.2171 45.6103 57.5206 45.4262 57.6668 45.133C57.9391 44.5884 57.728 43.9775 57.1461 43.6865C56.572 43.4004 55.9487 43.5943 55.6767 44.1393C55.5302 44.4325 55.5697 44.7875 55.7308 45.0331L55.3182 45.343C55.0932 44.9673 54.9714 44.4783 55.2469 43.9251C55.6532 43.1117 56.5473 42.7684 57.3934 43.1912Z" fill="white"/>
<path d="M53.9582 46.2615L56.1222 47.7074L56.6402 46.9328L57.0356 47.1965L55.6991 49.1956L55.3041 48.9318L55.822 48.1565L53.658 46.7101L53.9582 46.2615Z" fill="white"/>
<path d="M21.217 44.3926V41.8448H21.7707V44.3926H21.217ZM21.1536 41.1905C21.1536 41.0005 21.3064 40.8473 21.4966 40.8473C21.6863 40.8473 21.8393 41.0005 21.8393 41.1905C21.8393 41.3805 21.6863 41.5333 21.4966 41.5333C21.3064 41.5333 21.1536 41.3805 21.1536 41.1905Z" fill="#50B7EB"/>
<path d="M24.6078 44.3926L23.4316 42.9051L23.1203 43.2688V44.3926H22.5032V40.8739H23.1203V42.5459L24.4973 40.8739H25.2623L23.8327 42.5298L25.3733 44.3926H24.6078Z" fill="#50B7EB"/>
<path d="M26.7379 42.2346C26.2681 42.2346 26.0469 42.5986 26.0257 42.9049H27.4603C27.4445 42.604 27.2388 42.2346 26.7379 42.2346ZM25.4502 43.1153C25.4502 42.3768 25.9886 41.7809 26.743 41.7809C27.508 41.7809 27.993 42.3611 27.993 43.1635V43.3003H26.0307C26.0732 43.68 26.3579 44.0021 26.838 44.0021C27.0912 44.0021 27.3811 43.9014 27.5658 43.7172L27.8191 44.0809C27.5607 44.3235 27.1862 44.4558 26.7851 44.4558C26.0149 44.4558 25.4502 43.9229 25.4502 43.1153Z" fill="#50B7EB"/>
<path d="M29.6753 42.2346C29.2059 42.2346 28.9841 42.5986 28.963 42.9049H30.3978C30.3823 42.604 30.1766 42.2346 29.6753 42.2346ZM28.3879 43.1153C28.3879 42.3768 28.9261 41.7809 29.6802 41.7809C30.4453 41.7809 30.9308 42.3611 30.9308 43.1635V43.3003H28.9684C29.0107 43.68 29.2954 44.0021 29.7753 44.0021C30.0287 44.0021 30.3188 43.9014 30.5031 43.7172L30.7565 44.0809C30.4982 44.3235 30.1237 44.4558 29.7228 44.4558C28.9524 44.4558 28.3879 43.9229 28.3879 43.1153Z" fill="#50B7EB"/>
<path d="M33.4092 43.1155C33.4092 42.6199 33.124 42.2719 32.6863 42.2719C32.4276 42.2719 32.1587 42.4193 32.0322 42.6093V43.6174C32.1533 43.8071 32.4276 43.9651 32.6863 43.9651C33.124 43.9651 33.4092 43.6113 33.4092 43.1155ZM32.0322 44.0387V45.363H31.4783V41.8448H32.0322V42.1927C32.2222 41.9393 32.5174 41.7811 32.8497 41.7811C33.5091 41.7811 33.9785 42.2766 33.9785 43.1155C33.9785 43.9545 33.5091 44.456 32.8497 44.456C32.528 44.456 32.2431 44.3079 32.0322 44.0387Z" fill="#50B7EB"/>
<path d="M34.3198 43.8963L34.6685 43.4162C34.906 43.6748 35.2908 43.9069 35.7812 43.9069C36.2879 43.9069 36.483 43.6588 36.483 43.4214C36.483 42.6832 34.4365 43.1416 34.4365 41.8498C34.4365 41.2636 34.9424 40.8153 35.7182 40.8153C36.2613 40.8153 36.7096 40.9947 37.0312 41.3114L36.6833 41.7703C36.4035 41.4908 36.0293 41.3643 35.6601 41.3643C35.3016 41.3643 35.0693 41.5437 35.0693 41.8022C35.0693 42.4618 37.1158 42.0555 37.1158 43.3638C37.1158 43.9492 36.6992 44.4558 35.7546 44.4558C35.1058 44.4558 34.6368 44.2231 34.3198 43.8963Z" fill="#50B7EB"/>
<path d="M39.2245 43.8116V43.4214C39.0929 43.2474 38.8555 43.1581 38.618 43.1581C38.3065 43.1581 38.069 43.3426 38.069 43.6172C38.069 43.8963 38.3065 44.0754 38.618 44.0754C38.8555 44.0754 39.0929 43.9864 39.2245 43.8116ZM39.2245 44.3924V44.1126C39.0346 44.3343 38.7336 44.4558 38.3966 44.4558C37.9851 44.4558 37.5154 44.1707 37.5154 43.6111C37.5154 43.0206 37.9797 42.7777 38.3966 42.7777C38.7445 42.7777 39.0346 42.8889 39.2245 43.1052V42.7255C39.2245 42.4297 38.9765 42.2506 38.6286 42.2506C38.3436 42.2506 38.0902 42.3559 37.8739 42.5774L37.6419 42.1925C37.9374 41.9074 38.3065 41.7809 38.7132 41.7809C39.2826 41.7809 39.7782 42.0183 39.7782 42.6992V44.3924H39.2245Z" fill="#50B7EB"/>
<path d="M40.6317 44.3926V42.3249H40.2097V41.8448H40.6317V41.7019C40.6317 41.1482 40.9538 40.8214 41.4334 40.8214C41.6661 40.8214 41.8925 40.879 42.0458 41.0424L41.8295 41.3857C41.7555 41.3168 41.6602 41.2744 41.5391 41.2744C41.3177 41.2744 41.1858 41.4174 41.1858 41.7019V41.8448H41.7025V42.3249H41.1858V44.3926H40.6317Z" fill="#50B7EB"/>
<path d="M43.2576 42.2346C42.7886 42.2346 42.5671 42.5986 42.546 42.9049H43.9806C43.9653 42.604 43.7589 42.2346 43.2576 42.2346ZM41.9709 43.1153C41.9709 42.3768 42.5089 41.7809 43.2635 41.7809C44.0283 41.7809 44.5135 42.3611 44.5135 43.1635V43.3003H42.5512C42.5935 43.68 42.878 44.0021 43.358 44.0021C43.6115 44.0021 43.9018 43.9014 44.0864 43.7172L44.3391 44.0809C44.0812 44.3235 43.706 44.4558 43.3059 44.4558C42.5352 44.4558 41.9709 43.9229 41.9709 43.1153Z" fill="#50B7EB"/>
<path d="M21.1926 58.1194V53.2827H24.7381V54.37H22.4398V55.124H24.6876V56.212H22.4398V58.1194H21.1926Z" fill="white"/>
<path d="M25.7024 58.1194V53.2827H29.2481V54.37H26.9493V55.124H29.1976V56.212H26.9493V57.0314H29.2481V58.1194H25.7024Z" fill="white"/>
<path d="M33.098 54.8849C33.098 54.5515 32.83 54.37 32.4962 54.37H31.5102V55.4068H32.4962C32.83 55.4068 33.098 55.2258 33.098 54.8849ZM32.9604 58.1194L32.1482 56.4949H31.5102V58.1194H30.2629V53.2827H32.6847C33.7579 53.2827 34.367 53.9931 34.367 54.8926C34.367 55.7329 33.8597 56.1826 33.4032 56.3425L34.3887 58.1194H32.9604Z" fill="white"/>
<path d="M38.181 54.8926C38.181 54.5588 37.9125 54.37 37.5792 54.37H36.5929V55.4068H37.5792C37.9125 55.4068 38.181 55.2183 38.181 54.8926ZM35.3457 58.1194V53.2827H37.7673C38.8553 53.2827 39.4501 54.0146 39.4501 54.8926C39.4501 55.7625 38.8553 56.4949 37.7673 56.4949H36.5929V58.1194H35.3457Z" fill="white"/>
<path d="M41.8713 54.5151L41.2546 56.3347H42.4799L41.8713 54.5151ZM43.0602 58.1194L42.8208 57.4228H40.9137L40.6744 58.1194H39.2603L41.0806 53.2827H42.6542L44.4743 58.1194H43.0602Z" fill="white"/>
</g>
<defs>
<clipPath id="clip0">
<rect width="65" height="65" fill="white" transform="translate(0.333496)"/>
</clipPath>
</defs>
</svg>
