<svg width="25" height="24" viewBox="0 0 25 24" fill="none" xmlns="http://www.w3.org/2000/svg">
                <g clip-path="url(#clip0)">
               <path d="M19.7073,23.5891 C14.5743,24.137 9.42572,24.137 4.29272,23.5891 C2.24597,23.3707 0.629333,21.754 0.410889,19.7071 C-0.136963,14.5741 -0.136963,9.42572 0.410889,4.29272 C0.629333,2.24597 2.24597,0.629333 4.29272,0.410889 C9.42572,-0.136963 14.5741,-0.136963 19.7071,0.410889 C21.754,0.629333 23.3707,2.24597 23.5891,4.29272 C24.137,9.42572 24.137,14.5741 23.5891,19.7071 C23.3707,21.754 21.7542,23.3707 19.7073,23.5891 Z M12.3491,23.999 C13.7475,23.9922 15.1457,23.9448 16.5433,23.8569 L16.5433,14.1129 L19.3262,14.1129 L19.6624,10.6114 L16.5433,10.6114 L16.5433,8.38794 C16.5433,7.89685 16.9414,7.49878 17.4325,7.49878 L19.6624,7.49878 L19.6624,3.99707 L16.1352,3.99707 C14.0441,3.99707 12.3491,5.69226 12.3491,7.78333 L12.3491,10.6114 L10.3115,10.6114 L10.3115,14.1129 L12.3491,14.1129 L12.3491,23.999 Z" fill="#E6E9E8"></path>
                </g>
                <defs>
                <clipPath id="clip0">
                <rect width="24" height="24" fill="white" transform="translate(0.678589)"></rect>
                </clipPath>
                </defs>
              </svg>