<svg width="24" height="24" viewBox="0 0 24 24" fill="none" xmlns="http://www.w3.org/2000/svg">
								<path d="M13.9236 11.453L11.2284 10.1954C10.9932 10.0862 10.8 10.2086 10.8 10.469V12.8378C10.8 13.0982 10.9932 13.2206 11.2284 13.1114L13.9224 11.8538C14.1588 11.7434 14.1588 11.5634 13.9236 11.453ZM12 0.133423C5.6376 0.133423 0.479996 5.29102 0.479996 11.6534C0.479996 18.0158 5.6376 23.1734 12 23.1734C18.3624 23.1734 23.52 18.0158 23.52 11.6534C23.52 5.29102 18.3624 0.133423 12 0.133423ZM12 16.3334C6.1032 16.3334 6 15.8018 6 11.6534C6 7.50502 6.1032 6.97342 12 6.97342C17.8968 6.97342 18 7.50502 18 11.6534C18 15.8018 17.8968 16.3334 12 16.3334Z" fill="#E6E9E8"></path>
							</svg>