<svg width="25" height="24" viewBox="0 0 25 24" fill="none" xmlns="http://www.w3.org/2000/svg">
                <g clip-path="url(#clip0)">
                <path d="M12.6786 0.480011C6.31617 0.480011 1.15857 5.63761 1.15857 12C1.15857 18.3624 6.31617 23.52 12.6786 23.52C19.041 23.52 24.1986 18.3624 24.1986 12C24.1986 5.63761 19.041 0.480011 12.6786 0.480011ZM9.85857 16.7748H7.52577V9.26761H9.85857V16.7748ZM8.67777 8.34601C7.94097 8.34601 7.46457 7.82401 7.46457 7.17841C7.46457 6.51961 7.95537 6.01321 8.70777 6.01321C9.46017 6.01321 9.92097 6.51961 9.93537 7.17841C9.93537 7.82401 9.46017 8.34601 8.67777 8.34601ZM18.3786 16.7748H16.0458V12.6144C16.0458 11.646 15.7074 10.9884 14.8638 10.9884C14.2194 10.9884 13.8366 11.4336 13.6674 11.862C13.605 12.0144 13.5894 12.2304 13.5894 12.4452V16.7736H11.2554V11.6616C11.2554 10.7244 11.2254 9.94081 11.1942 9.26641H13.221L13.3278 10.3092H13.3746C13.6818 9.81961 14.4342 9.09721 15.693 9.09721C17.2278 9.09721 18.3786 10.1256 18.3786 12.336V16.7748Z" fill="#E6E9E8"></path>
                </g>
                <defs>
                <clipPath id="clip0">
                <rect width="24" height="24" fill="white" transform="translate(0.678589)"></rect>
                </clipPath>
                </defs>
              </svg>