<svg width="25" height="24" viewBox="0 0 25 24" fill="none" xmlns="http://www.w3.org/2000/svg">
                <g clip-path="url(#clip0)">
                <path d="M12.6786 0C6.0518 0 0.678589 5.37321 0.678589 12C0.678589 18.6268 6.0518 24 12.6786 24C19.3054 24 24.6786 18.6268 24.6786 12C24.6786 5.37321 19.3054 0 12.6786 0ZM18.4456 9.04554C18.4536 9.17143 18.4536 9.30268 18.4536 9.43125C18.4536 13.3634 15.4589 17.8929 9.98662 17.8929C8.29912 17.8929 6.73484 17.4027 5.41698 16.5589C5.65805 16.5857 5.88841 16.5964 6.13484 16.5964C7.5277 16.5964 8.80805 16.125 9.82859 15.3268C8.52145 15.3 7.42323 14.4429 7.04823 13.2643C7.50627 13.3313 7.91877 13.3313 8.3902 13.2107C7.71714 13.074 7.11218 12.7084 6.6781 12.1762C6.24401 11.644 6.00757 10.9779 6.00895 10.2911V10.2536C6.4027 10.4759 6.86609 10.6125 7.35091 10.6313C6.94335 10.3596 6.6091 9.99164 6.37782 9.5599C6.14653 9.12817 6.02535 8.64603 6.02502 8.15625C6.02502 7.60179 6.16966 7.09554 6.42948 6.65625C7.17654 7.5759 8.10876 8.32806 9.16555 8.86384C10.2223 9.39961 11.38 9.70702 12.5634 9.76607C12.1429 7.74375 13.6536 6.10714 15.4697 6.10714C16.3268 6.10714 17.0982 6.46607 17.642 7.04464C18.3143 6.91875 18.9572 6.66696 19.5304 6.32946C19.3081 7.01786 18.842 7.59911 18.2232 7.96607C18.8232 7.90179 19.4018 7.73571 19.9375 7.50268C19.5331 8.09732 19.0268 8.625 18.4456 9.04554Z" fill="#E6E9E8"></path>
                </g>
                <defs>
                <clipPath id="clip0">
                <rect width="24" height="24" fill="white" transform="translate(0.678589)"></rect>
                </clipPath>
                </defs>
              </svg>